<svg xmlns="http://www.w3.org/2000/svg" width="21.693" height="21.541" viewBox="0 0 21.693 21.541">
  <path id="Subtraction_11" data-name="Subtraction 11" d="M16.979,21.541a3.778,3.778,0,0,1-1.822-.609l-3.24-1.924a2.326,2.326,0,0,0-2.14,0L6.522,20.916a3.778,3.778,0,0,1-1.823.61,1.316,1.316,0,0,1-1.075-.476A2.88,2.88,0,0,1,3.4,18.632l.767-3.341A2.38,2.38,0,0,0,3.6,13.323L.924,10.647a2.288,2.288,0,0,1-.856-2.24,2.284,2.284,0,0,1,2-1.319L5.524,6.51A2.381,2.381,0,0,0,7.057,5.382L8.966,1.564C9.463.556,10.132,0,10.85,0s1.38.55,1.876,1.548l1.909,3.819A2.356,2.356,0,0,0,16.168,6.5l3.458.579a2.3,2.3,0,0,1,2,1.328,2.289,2.289,0,0,1-.857,2.23l-2.689,2.7a2.36,2.36,0,0,0-.565,1.968l.767,3.341a2.879,2.879,0,0,1-.226,2.419A1.317,1.317,0,0,1,16.979,21.541Zm-6.133-4.47a1.7,1.7,0,0,1,.845.206L14.25,18.8a2.976,2.976,0,0,0,1.44.481,1.04,1.04,0,0,0,.85-.376,2.273,2.273,0,0,0,.179-1.91l-.607-2.64a1.862,1.862,0,0,1,.447-1.553l2.125-2.137a1.806,1.806,0,0,0,.677-1.76,1.819,1.819,0,0,0-1.58-1.051l-2.73-.456A1.862,1.862,0,0,1,13.839,6.5L12.332,3.487c-.392-.789-.919-1.224-1.483-1.224S9.753,2.7,9.36,3.5L7.853,6.515a1.881,1.881,0,0,1-1.212.891l-2.73.458A1.8,1.8,0,0,0,2.332,8.9a1.808,1.808,0,0,0,.676,1.77l2.114,2.114a1.881,1.881,0,0,1,.445,1.553l-.605,2.64a2.273,2.273,0,0,0,.179,1.91,1.04,1.04,0,0,0,.849.376,2.982,2.982,0,0,0,1.439-.481L10,17.277A1.7,1.7,0,0,1,10.846,17.071Z" transform="translate(0.001 0)" fill="#fff"/>
</svg>
