<svg id="close-circle_bulk" data-name="close-circle/bulk" xmlns="http://www.w3.org/2000/svg" width="32" height="32" viewBox="0 0 32 32">
  <g id="vuesax_bulk_close-circle" data-name="vuesax/bulk/close-circle">
    <g id="close-circle">
      <path id="Vector" d="M28,14A14,14,0,1,1,14,0,14,14,0,0,1,28,14Z" transform="translate(2 2)" fill="#eaeaea"/>
      <path id="Vector-2" data-name="Vector" d="M4.638,3.577l2.3-2.3A.75.75,0,1,0,5.878.218l-2.3,2.3-2.3-2.3a.75.75,0,0,0-1.06,1.06l2.3,2.3-2.3,2.3a.754.754,0,0,0,0,1.06.748.748,0,0,0,1.06,0l2.3-2.3,2.3,2.3a.748.748,0,0,0,1.06,0,.754.754,0,0,0,0-1.06Z" transform="translate(12.423 12.423)" fill="#b8b8b8"/>
      <path id="Vector-3" data-name="Vector" d="M0,0H32V32H0Z" fill="none" opacity="0"/>
    </g>
  </g>
</svg>
