<svg id="vuesax_bold_trash" data-name="vuesax/bold/trash" xmlns="http://www.w3.org/2000/svg" width="24.601" height="24.601" viewBox="0 0 24.601 24.601">
  <g id="trash">
    <path id="Vector" d="M19.295,4.08c-1.65-.164-3.3-.287-4.961-.379V3.69l-.226-1.333C13.954,1.415,13.729,0,11.33,0H8.645C6.256,0,6.031,1.353,5.867,2.347L5.652,3.659c-.953.062-1.907.123-2.86.215L.7,4.08A.767.767,0,1,0,.844,5.607L2.935,5.4a81.725,81.725,0,0,1,16.216.215h.082A.776.776,0,0,0,20,4.92.786.786,0,0,0,19.295,4.08Z" transform="translate(2.303 1.281)" fill="#f7003a"/>
    <path id="Vector-2" data-name="Vector" d="M15.173.4A1.3,1.3,0,0,0,14.24,0H1.283A1.279,1.279,0,0,0,.351.4,1.32,1.32,0,0,0,0,1.363L.638,11.88c.113,1.558.256,3.506,3.834,3.506h6.581c3.577,0,3.721-1.937,3.834-3.506l.636-10.507A1.329,1.329,0,0,0,15.173.4ZM9.463,10.25H6.05a.769.769,0,0,1,0-1.538H9.463a.769.769,0,1,1,0,1.538Zm.861-4.1H5.2a.769.769,0,0,1,0-1.538h5.125a.769.769,0,1,1,0,1.538Z" transform="translate(4.539 7.944)" fill="#f7003a"/>
    <path id="Vector-3" data-name="Vector" d="M0,0H24.6V24.6H0Z" transform="translate(24.601 24.601) rotate(180)" fill="none" opacity="0"/>
  </g>
</svg>
