<svg id="setting-4_linear" data-name="setting-4/linear" xmlns="http://www.w3.org/2000/svg" width="21.658" height="21.658" viewBox="0 0 21.658 21.658">
  <g id="vuesax_linear_setting-4" data-name="vuesax/linear/setting-4">
    <g id="setting-4">
      <path id="Vector" d="M5.415,0H0" transform="translate(14.439 5.866)" fill="none" stroke="#fff" stroke-linecap="round" stroke-linejoin="round" stroke-width="1.5"/>
      <path id="Vector-2" data-name="Vector" d="M3.61,0H0" transform="translate(1.805 5.866)" fill="none" stroke="#fff" stroke-linecap="round" stroke-linejoin="round" stroke-width="1.5"/>
      <path id="Vector-3" data-name="Vector" d="M6.317,3.158A3.158,3.158,0,1,1,3.158,0,3.158,3.158,0,0,1,6.317,3.158Z" transform="translate(5.866 2.707)" fill="none" stroke="#fff" stroke-linecap="round" stroke-linejoin="round" stroke-width="1.5"/>
      <path id="Vector-4" data-name="Vector" d="M3.61,0H0" transform="translate(16.244 15.792)" fill="none" stroke="#fff" stroke-linecap="round" stroke-linejoin="round" stroke-width="1.5"/>
      <path id="Vector-5" data-name="Vector" d="M5.415,0H0" transform="translate(1.805 15.792)" fill="none" stroke="#fff" stroke-linecap="round" stroke-linejoin="round" stroke-width="1.5"/>
      <path id="Vector-6" data-name="Vector" d="M6.317,3.158A3.158,3.158,0,1,1,3.158,0,3.158,3.158,0,0,1,6.317,3.158Z" transform="translate(9.475 12.634)" fill="none" stroke="#fff" stroke-linecap="round" stroke-linejoin="round" stroke-width="1.5"/>
      <path id="Vector-7" data-name="Vector" d="M0,0H21.658V21.658H0Z" fill="none" opacity="0"/>
    </g>
  </g>
</svg>
