<svg xmlns="http://www.w3.org/2000/svg" width="90.444" height="315.648" viewBox="0 0 90.444 315.648">
  <g id="Group_174491" data-name="Group 174491" transform="translate(-2909.768 3626.374)" opacity="0.2">
    <path id="Path_55270" data-name="Path 55270" d="M813.56,343.46l13.682,17.1V578.1H813.56Z" transform="translate(2172.969 -3888.821)" fill="#222f35"/>
    <path id="Path_55271" data-name="Path 55271" d="M803.722,509.29l-13.682,4.285v54.464h13.682Z" transform="translate(2171.537 -3878.765)" fill="#222f35"/>
    <path id="Path_55272" data-name="Path 55272" d="M779.3,509.29l-13.682,4.285v54.464H779.3Z" transform="translate(2170.064 -3878.765)" fill="#222f35"/>
    <path id="Path_55273" data-name="Path 55273" d="M754.882,509.29,741.2,513.575v54.464h13.682Z" transform="translate(2168.57 -3878.765)" fill="#222f35"/>
    <rect id="Rectangle_1952" data-name="Rectangle 1952" width="65.495" height="13.682" transform="translate(2909.768 -3392.831)" fill="#222f35"/>
    <path id="Path_55274" data-name="Path 55274" d="M806.685,443.974V463.32l-13.672-13.672L741.2,397.836V378.49Z" transform="translate(2168.57 -3886.697)" fill="#222f35"/>
    <path id="Path_55275" data-name="Path 55275" d="M790.05,463.92,803.732,477.6v24.766H790.05Z" transform="translate(2171.535 -3881.516)" fill="#222f35"/>
    <path id="Path_55276" data-name="Path 55276" d="M754.882,392.172v58.155L741.2,436.645V378.49Z" transform="translate(2168.57 -3886.697)" fill="#222f35"/>
    <path id="Path_55277" data-name="Path 55277" d="M754.882,465.232v37.886H741.2V451.55Z" transform="translate(2168.57 -3882.266)" fill="#222f35"/>
    <path id="Path_55278" data-name="Path 55278" d="M806.695,480.564V499.91h-.01l-8.252-8.262-5.419-5.42-38.13-38.119L741.2,434.426V415.08l13.682,13.683,38.13,38.119Z" transform="translate(2168.57 -3884.477)" fill="#222f35"/>
    <path id="Path_55279" data-name="Path 55279" d="M804.242,330.888,790.656,317.11l-.127,19.346-.489,73.269,13.6,13.767Z" transform="translate(2171.537 -3890.42)" fill="#222f35"/>
    <path id="Path_55280" data-name="Path 55280" d="M805.323,401.537l-40.857-41.4-.126,19.346,40.855,41.4Z" transform="translate(2169.98 -3887.809)" fill="#222f35"/>
    <path id="Path_55281" data-name="Path 55281" d="M778.552,304.838l-13.6-13.778v.011l-.075,11.678-.052,7.658-.361,53.923-.126,19.346,13.6,13.778.127-19.357.361-53.912Z" transform="translate(2169.98 -3891.998)" fill="#222f35"/>
    <path id="Path_55282" data-name="Path 55282" d="M754.882,373.632,741.2,359.462V292.61h13.682Z" transform="translate(2168.57 -3891.905)" fill="#222f35"/>
    <path id="Path_55283" data-name="Path 55283" d="M741.2,267.08l13.682,14.16v66.852H741.2Z" transform="translate(2168.57 -3893.454)" fill="#222f35"/>
    <rect id="Rectangle_1953" data-name="Rectangle 1953" width="11.391" height="11.391" transform="translate(2953.525 -3585.862) rotate(-45)" fill="#222f35"/>
  </g>
</svg>
