<svg width="22" height="22" viewBox="0 0 22 22" fill="none" xmlns="http://www.w3.org/2000/svg">
<path d="M11 21.5C9.55489 21.5 8.19378 21.2239 6.91667 20.6717C5.63956 20.1194 4.52733 19.3689 3.58 18.42C2.63111 17.4734 1.88056 16.3612 1.32833 15.0833C0.776111 13.8062 0.5 12.4451 0.5 11C0.5 9.551 0.776111 8.18872 1.32833 6.91317C1.88133 5.63761 2.63189 4.52617 3.58 3.57883C4.52656 2.6315 5.63878 1.88172 6.91667 1.3295C8.19378 0.7765 9.55489 0.5 11 0.5C12.449 0.5 13.8113 0.776111 15.0868 1.32833C16.3624 1.88133 17.4738 2.63189 18.4212 3.58C19.3685 4.52733 20.1183 5.63839 20.6705 6.91317C21.2235 8.18872 21.5 9.551 21.5 11C21.5 12.4451 21.2239 13.8062 20.6717 15.0833C20.1194 16.3604 19.3689 17.4727 18.42 18.42C17.4727 19.3681 16.3616 20.1187 15.0868 20.6717C13.8113 21.2239 12.449 21.5 11 21.5ZM11 20.3427C11.6844 19.463 12.2491 18.5993 12.694 17.7515C13.1381 16.9037 13.4994 15.9548 13.7778 14.9048H8.22217C8.53017 16.0139 8.89883 16.9924 9.32817 17.8402C9.7575 18.6879 10.3148 19.5221 11 20.3427ZM9.51483 20.1677C8.97039 19.526 8.47339 18.7327 8.02383 17.7877C7.57428 16.8434 7.23983 15.8821 7.0205 14.9037H2.54517C3.21406 16.355 4.16178 17.545 5.38833 18.4737C6.61567 19.4023 7.99078 19.967 9.51367 20.1677H9.51483ZM12.4852 20.1677C14.0081 19.967 15.3832 19.4023 16.6105 18.4737C17.8378 17.545 18.7856 16.355 19.4537 14.9037H14.9807C14.6851 15.8969 14.3129 16.866 13.8642 17.811C13.4146 18.7552 12.9549 19.5408 12.4852 20.1677ZM2.07033 13.737H6.77783C6.68917 13.2587 6.62694 12.7924 6.59117 12.3382C6.55383 11.8839 6.53517 11.4379 6.53517 11C6.53517 10.5621 6.55344 10.1161 6.59 9.66183C6.62656 9.20761 6.68878 8.74094 6.77667 8.26183H2.0715C1.94472 8.66628 1.84556 9.10689 1.774 9.58367C1.70244 10.0604 1.66667 10.5326 1.66667 11C1.66667 11.4682 1.70206 11.9403 1.77283 12.4163C1.84439 12.8931 1.94356 13.3333 2.07033 13.737ZM7.9445 13.737H14.0555C14.1442 13.2587 14.2064 12.7998 14.2422 12.3603C14.2795 11.9217 14.2982 11.4682 14.2982 11C14.2982 10.5318 14.2799 10.0783 14.2433 9.63967C14.2068 9.20022 14.1446 8.74133 14.0567 8.263H7.94333C7.85544 8.74133 7.79322 9.20022 7.75667 9.63967C7.72011 10.0783 7.70183 10.5318 7.70183 11C7.70183 11.4682 7.72011 11.9217 7.75667 12.3603C7.79322 12.7998 7.85661 13.2587 7.9445 13.737ZM15.2222 13.737H19.9297C20.0564 13.3326 20.1556 12.8923 20.2272 12.4163C20.2987 11.9403 20.3341 11.4682 20.3333 11C20.3333 10.5318 20.2979 10.0597 20.2272 9.58367C20.1556 9.10689 20.0564 8.66667 19.9297 8.263H15.2222C15.3108 8.74133 15.3731 9.20761 15.4088 9.66183C15.4462 10.1161 15.4648 10.5621 15.4648 11C15.4648 11.4379 15.4466 11.8839 15.41 12.3382C15.3734 12.7924 15.3112 13.2591 15.2233 13.7382L15.2222 13.737ZM14.9807 7.09633H19.4537C18.77 5.61544 17.8336 4.42544 16.6443 3.52633C15.4543 2.62722 14.0679 2.05556 12.4852 1.81133C13.0296 2.52689 13.5192 3.34589 13.954 4.26833C14.388 5.19 14.7302 6.13267 14.9807 7.09633ZM8.22217 7.09633H13.7778C13.4698 6.00122 13.0899 5.01111 12.638 4.126C12.1869 3.24011 11.6409 2.41722 11 1.65733C10.3599 2.41722 9.81389 3.24011 9.362 4.126C8.91089 5.01111 8.53094 6.00122 8.22217 7.09633ZM2.54633 7.09633H7.01933C7.26978 6.13267 7.612 5.19 8.046 4.26833C8.48078 3.34589 8.97039 2.5265 9.51483 1.81017C7.91728 2.05517 6.52739 2.63072 5.34517 3.53683C4.16294 4.44372 3.22961 5.62983 2.54517 7.09517L2.54633 7.09633Z" fill="#222F35"/>
</svg>
