<svg id="sms-tracking" xmlns="http://www.w3.org/2000/svg" width="22.231" height="22.231" viewBox="0 0 22.231 22.231">
  <path id="Vector" d="M13.894,0V2.334c0,3.242-1.853,4.631-4.631,4.631H0" transform="translate(6.484 12.023)" fill="none" stroke="#222f35" stroke-linecap="round" stroke-linejoin="round" stroke-width="1.5"/>
  <path id="Vector-2" data-name="Vector" d="M0,4.631C0,1.389,1.853,0,4.631,0h9.263c2.779,0,4.631,1.389,4.631,4.631" transform="translate(1.853 3.242)" fill="none" stroke="#222f35" stroke-linecap="round" stroke-linejoin="round" stroke-width="1.5"/>
  <path id="Vector-3" data-name="Vector" d="M9.263,0l-2.9,2.316a2.932,2.932,0,0,1-3.474,0L0,0" transform="translate(6.484 8.336)" fill="none" stroke="#222f35" stroke-linecap="round" stroke-linejoin="round" stroke-width="1.5"/>
  <path id="Vector-4" data-name="Vector" d="M0,0H5.558" transform="translate(1.853 15.284)" fill="none" stroke="#222f35" stroke-linecap="round" stroke-linejoin="round" stroke-width="1.5"/>
  <path id="Vector-5" data-name="Vector" d="M0,0H2.779" transform="translate(1.853 11.578)" fill="none" stroke="#222f35" stroke-linecap="round" stroke-linejoin="round" stroke-width="1.5"/>
  <path id="Vector-6" data-name="Vector" d="M0,0H22.231V22.231H0Z" fill="none" opacity="0"/>
</svg>
