<svg id="noun-notification-5697508" xmlns="http://www.w3.org/2000/svg" width="18" height="20" viewBox="0 0 18 20">
  <path id="Path_53274" data-name="Path 53274" d="M122.751,17.5a8.514,8.514,0,0,0-8.4,7.532l-.561,4.558a4.644,4.644,0,0,0,4.567,5.244h.4a4.335,4.335,0,0,0,8,0h.4a4.644,4.644,0,0,0,4.567-5.244l-.561-4.558a8.514,8.514,0,0,0-8.4-7.532Zm2.495,17.334h-4.99a3,3,0,0,0,4.99,0Zm-9.575-9.639a7.121,7.121,0,0,1,14.16,0l.561,4.558a3.311,3.311,0,0,1-3.244,3.748h-8.794a3.311,3.311,0,0,1-3.244-3.748Z" transform="translate(-113.751 -17.5)" fill="#222f35" fill-rule="evenodd"/>
</svg>
