<svg xmlns="http://www.w3.org/2000/svg" width="172" height="115" viewBox="0 0 172 115">
  <g id="Group_174504" data-name="Group 174504" transform="translate(-88 -170)" opacity="0.13">
    <g id="Group_174498" data-name="Group 174498">
      <circle id="Ellipse_1379" data-name="Ellipse 1379" cx="5" cy="5" r="5" transform="translate(88 170)" fill="#efc47f"/>
      <circle id="Ellipse_1380" data-name="Ellipse 1380" cx="5" cy="5" r="5" transform="translate(148 170)" fill="#efc47f"/>
      <circle id="Ellipse_1381" data-name="Ellipse 1381" cx="5" cy="5" r="5" transform="translate(206 170)" fill="#efc47f"/>
      <circle id="Ellipse_1382" data-name="Ellipse 1382" cx="5" cy="5" r="5" transform="translate(118 170)" fill="#efc47f"/>
      <circle id="Ellipse_1383" data-name="Ellipse 1383" cx="5" cy="5" r="5" transform="translate(178 170)" fill="#efc47f"/>
      <circle id="Ellipse_1384" data-name="Ellipse 1384" cx="5" cy="5" r="5" transform="translate(236 170)" fill="#efc47f"/>
      <circle id="Ellipse_1385" data-name="Ellipse 1385" cx="5" cy="5" r="5" transform="translate(102 170)" fill="#efc47f"/>
      <circle id="Ellipse_1386" data-name="Ellipse 1386" cx="5" cy="5" r="5" transform="translate(162 170)" fill="#efc47f"/>
      <circle id="Ellipse_1387" data-name="Ellipse 1387" cx="5" cy="5" r="5" transform="translate(220 170)" fill="#efc47f"/>
      <circle id="Ellipse_1388" data-name="Ellipse 1388" cx="5" cy="5" r="5" transform="translate(132 170)" fill="#efc47f"/>
      <circle id="Ellipse_1389" data-name="Ellipse 1389" cx="5" cy="5" r="5" transform="translate(192 170)" fill="#efc47f"/>
      <circle id="Ellipse_1390" data-name="Ellipse 1390" cx="5" cy="5" r="5" transform="translate(250 170)" fill="#efc47f"/>
    </g>
    <g id="Group_174499" data-name="Group 174499" transform="translate(0 42)">
      <circle id="Ellipse_1391" data-name="Ellipse 1391" cx="5" cy="5" r="5" transform="translate(88 170)" fill="#efc47f"/>
      <circle id="Ellipse_1392" data-name="Ellipse 1392" cx="5" cy="5" r="5" transform="translate(148 170)" fill="#efc47f"/>
      <circle id="Ellipse_1393" data-name="Ellipse 1393" cx="5" cy="5" r="5" transform="translate(206 170)" fill="#efc47f"/>
      <circle id="Ellipse_1394" data-name="Ellipse 1394" cx="5" cy="5" r="5" transform="translate(118 170)" fill="#efc47f"/>
      <circle id="Ellipse_1395" data-name="Ellipse 1395" cx="5" cy="5" r="5" transform="translate(178 170)" fill="#efc47f"/>
      <circle id="Ellipse_1396" data-name="Ellipse 1396" cx="5" cy="5" r="5" transform="translate(236 170)" fill="#efc47f"/>
      <circle id="Ellipse_1397" data-name="Ellipse 1397" cx="5" cy="5" r="5" transform="translate(102 170)" fill="#efc47f"/>
      <circle id="Ellipse_1398" data-name="Ellipse 1398" cx="5" cy="5" r="5" transform="translate(162 170)" fill="#efc47f"/>
      <circle id="Ellipse_1399" data-name="Ellipse 1399" cx="5" cy="5" r="5" transform="translate(220 170)" fill="#efc47f"/>
      <circle id="Ellipse_1400" data-name="Ellipse 1400" cx="5" cy="5" r="5" transform="translate(132 170)" fill="#efc47f"/>
      <circle id="Ellipse_1401" data-name="Ellipse 1401" cx="5" cy="5" r="5" transform="translate(192 170)" fill="#efc47f"/>
      <circle id="Ellipse_1402" data-name="Ellipse 1402" cx="5" cy="5" r="5" transform="translate(250 170)" fill="#efc47f"/>
    </g>
    <g id="Group_174500" data-name="Group 174500" transform="translate(0 84)">
      <circle id="Ellipse_1403" data-name="Ellipse 1403" cx="5" cy="5" r="5" transform="translate(88 170)" fill="#efc47f"/>
      <circle id="Ellipse_1404" data-name="Ellipse 1404" cx="5" cy="5" r="5" transform="translate(148 170)" fill="#efc47f"/>
      <circle id="Ellipse_1405" data-name="Ellipse 1405" cx="5" cy="5" r="5" transform="translate(206 170)" fill="#efc47f"/>
      <circle id="Ellipse_1406" data-name="Ellipse 1406" cx="5" cy="5" r="5" transform="translate(118 170)" fill="#efc47f"/>
      <circle id="Ellipse_1407" data-name="Ellipse 1407" cx="5" cy="5" r="5" transform="translate(178 170)" fill="#efc47f"/>
      <circle id="Ellipse_1408" data-name="Ellipse 1408" cx="5" cy="5" r="5" transform="translate(236 170)" fill="#efc47f"/>
      <circle id="Ellipse_1409" data-name="Ellipse 1409" cx="5" cy="5" r="5" transform="translate(102 170)" fill="#efc47f"/>
      <circle id="Ellipse_1410" data-name="Ellipse 1410" cx="5" cy="5" r="5" transform="translate(162 170)" fill="#efc47f"/>
      <circle id="Ellipse_1411" data-name="Ellipse 1411" cx="5" cy="5" r="5" transform="translate(220 170)" fill="#efc47f"/>
      <circle id="Ellipse_1412" data-name="Ellipse 1412" cx="5" cy="5" r="5" transform="translate(132 170)" fill="#efc47f"/>
      <circle id="Ellipse_1413" data-name="Ellipse 1413" cx="5" cy="5" r="5" transform="translate(192 170)" fill="#efc47f"/>
      <circle id="Ellipse_1414" data-name="Ellipse 1414" cx="5" cy="5" r="5" transform="translate(250 170)" fill="#efc47f"/>
    </g>
    <g id="Group_174501" data-name="Group 174501" transform="translate(0 21)">
      <circle id="Ellipse_1415" data-name="Ellipse 1415" cx="5" cy="5" r="5" transform="translate(88 170)" fill="#efc47f"/>
      <circle id="Ellipse_1416" data-name="Ellipse 1416" cx="5" cy="5" r="5" transform="translate(148 170)" fill="#efc47f"/>
      <circle id="Ellipse_1417" data-name="Ellipse 1417" cx="5" cy="5" r="5" transform="translate(206 170)" fill="#efc47f"/>
      <circle id="Ellipse_1418" data-name="Ellipse 1418" cx="5" cy="5" r="5" transform="translate(118 170)" fill="#efc47f"/>
      <circle id="Ellipse_1419" data-name="Ellipse 1419" cx="5" cy="5" r="5" transform="translate(178 170)" fill="#efc47f"/>
      <circle id="Ellipse_1420" data-name="Ellipse 1420" cx="5" cy="5" r="5" transform="translate(236 170)" fill="#efc47f"/>
      <circle id="Ellipse_1421" data-name="Ellipse 1421" cx="5" cy="5" r="5" transform="translate(102 170)" fill="#efc47f"/>
      <circle id="Ellipse_1422" data-name="Ellipse 1422" cx="5" cy="5" r="5" transform="translate(162 170)" fill="#efc47f"/>
      <circle id="Ellipse_1423" data-name="Ellipse 1423" cx="5" cy="5" r="5" transform="translate(220 170)" fill="#efc47f"/>
      <circle id="Ellipse_1424" data-name="Ellipse 1424" cx="5" cy="5" r="5" transform="translate(132 170)" fill="#efc47f"/>
      <circle id="Ellipse_1425" data-name="Ellipse 1425" cx="5" cy="5" r="5" transform="translate(192 170)" fill="#efc47f"/>
      <circle id="Ellipse_1426" data-name="Ellipse 1426" cx="5" cy="5" r="5" transform="translate(250 170)" fill="#efc47f"/>
    </g>
    <g id="Group_174502" data-name="Group 174502" transform="translate(0 63)">
      <circle id="Ellipse_1427" data-name="Ellipse 1427" cx="5" cy="5" r="5" transform="translate(88 170)" fill="#efc47f"/>
      <circle id="Ellipse_1428" data-name="Ellipse 1428" cx="5" cy="5" r="5" transform="translate(148 170)" fill="#efc47f"/>
      <circle id="Ellipse_1429" data-name="Ellipse 1429" cx="5" cy="5" r="5" transform="translate(206 170)" fill="#efc47f"/>
      <circle id="Ellipse_1430" data-name="Ellipse 1430" cx="5" cy="5" r="5" transform="translate(118 170)" fill="#efc47f"/>
      <circle id="Ellipse_1431" data-name="Ellipse 1431" cx="5" cy="5" r="5" transform="translate(178 170)" fill="#efc47f"/>
      <circle id="Ellipse_1432" data-name="Ellipse 1432" cx="5" cy="5" r="5" transform="translate(236 170)" fill="#efc47f"/>
      <circle id="Ellipse_1433" data-name="Ellipse 1433" cx="5" cy="5" r="5" transform="translate(102 170)" fill="#efc47f"/>
      <circle id="Ellipse_1434" data-name="Ellipse 1434" cx="5" cy="5" r="5" transform="translate(162 170)" fill="#efc47f"/>
      <circle id="Ellipse_1435" data-name="Ellipse 1435" cx="5" cy="5" r="5" transform="translate(220 170)" fill="#efc47f"/>
      <circle id="Ellipse_1436" data-name="Ellipse 1436" cx="5" cy="5" r="5" transform="translate(132 170)" fill="#efc47f"/>
      <circle id="Ellipse_1437" data-name="Ellipse 1437" cx="5" cy="5" r="5" transform="translate(192 170)" fill="#efc47f"/>
      <circle id="Ellipse_1438" data-name="Ellipse 1438" cx="5" cy="5" r="5" transform="translate(250 170)" fill="#efc47f"/>
    </g>
    <g id="Group_174503" data-name="Group 174503" transform="translate(0 105)">
      <circle id="Ellipse_1439" data-name="Ellipse 1439" cx="5" cy="5" r="5" transform="translate(88 170)" fill="#efc47f"/>
      <circle id="Ellipse_1440" data-name="Ellipse 1440" cx="5" cy="5" r="5" transform="translate(148 170)" fill="#efc47f"/>
      <circle id="Ellipse_1441" data-name="Ellipse 1441" cx="5" cy="5" r="5" transform="translate(206 170)" fill="#efc47f"/>
      <circle id="Ellipse_1442" data-name="Ellipse 1442" cx="5" cy="5" r="5" transform="translate(118 170)" fill="#efc47f"/>
      <circle id="Ellipse_1443" data-name="Ellipse 1443" cx="5" cy="5" r="5" transform="translate(178 170)" fill="#efc47f"/>
      <circle id="Ellipse_1444" data-name="Ellipse 1444" cx="5" cy="5" r="5" transform="translate(236 170)" fill="#efc47f"/>
      <circle id="Ellipse_1445" data-name="Ellipse 1445" cx="5" cy="5" r="5" transform="translate(102 170)" fill="#efc47f"/>
      <circle id="Ellipse_1446" data-name="Ellipse 1446" cx="5" cy="5" r="5" transform="translate(162 170)" fill="#efc47f"/>
      <circle id="Ellipse_1447" data-name="Ellipse 1447" cx="5" cy="5" r="5" transform="translate(220 170)" fill="#efc47f"/>
      <circle id="Ellipse_1448" data-name="Ellipse 1448" cx="5" cy="5" r="5" transform="translate(132 170)" fill="#efc47f"/>
      <circle id="Ellipse_1449" data-name="Ellipse 1449" cx="5" cy="5" r="5" transform="translate(192 170)" fill="#efc47f"/>
      <circle id="Ellipse_1450" data-name="Ellipse 1450" cx="5" cy="5" r="5" transform="translate(250 170)" fill="#efc47f"/>
    </g>
  </g>
</svg>
