<svg xmlns="http://www.w3.org/2000/svg" xmlns:xlink="http://www.w3.org/1999/xlink" width="24" height="24" viewBox="0 0 24 24">
  <defs>
    <clipPath id="clip-path">
      <rect width="24" height="24" fill="none"/>
    </clipPath>
  </defs>
  <g id="Repeat_Grid_5" data-name="Repeat Grid 5" clip-path="url(#clip-path)">
    <g transform="translate(-179 -670)">
      <g id="message_broken" data-name="message/broken" transform="translate(179 670)">
        <g id="vuesax_broken_message" data-name="vuesax/broken/message">
          <g id="message">
            <path id="Vector" d="M0,6Q0,0,6,0h8q6,0,6,6v5q0,6-6,6h-.5a1.014,1.014,0,0,0-.8.4l-1.5,2a1.421,1.421,0,0,1-2.4,0l-1.5-2a1.13,1.13,0,0,0-.8-.4H6c-4,0-6-1-6-6V10" transform="translate(2 2)" fill="none" stroke="#222f35" stroke-linecap="round" stroke-linejoin="round" stroke-width="1.5"/>
            <path id="Vector-2" data-name="Vector" d="M.495.5H.5" transform="translate(15.502 10.5)" fill="none" stroke="#222f35" stroke-linecap="round" stroke-linejoin="round" stroke-width="2"/>
            <path id="Vector-3" data-name="Vector" d="M.495.5H.5" transform="translate(11.501 10.5)" fill="none" stroke="#222f35" stroke-linecap="round" stroke-linejoin="round" stroke-width="2"/>
            <path id="Vector-4" data-name="Vector" d="M.495.5H.5" transform="translate(7.5 10.5)" fill="none" stroke="#222f35" stroke-linecap="round" stroke-linejoin="round" stroke-width="2"/>
            <path id="Vector-5" data-name="Vector" d="M0,0H24V24H0Z" fill="none" opacity="0"/>
          </g>
        </g>
      </g>
    </g>
  </g>
</svg>
