<svg id="location" xmlns="http://www.w3.org/2000/svg" width="25.384" height="25.384" viewBox="0 0 25.384 25.384">
  <path id="Vector" d="M4.093,8.176A4.088,4.088,0,1,1,8.186,4.093,4.1,4.1,0,0,1,4.093,8.176Zm0-6.589A2.507,2.507,0,1,0,6.6,4.093,2.512,2.512,0,0,0,4.093,1.587Z" transform="translate(8.599 6.811)" fill="#bdc1c2"/>
  <path id="Vector-2" data-name="Vector" d="M9.917,22.751a6.315,6.315,0,0,1-4.368-1.766c-3.12-3-6.568-7.8-5.267-13.5A9.642,9.642,0,0,1,9.917,0h.011a9.641,9.641,0,0,1,9.635,7.5c1.29,5.7-2.158,10.482-5.278,13.485A6.315,6.315,0,0,1,9.917,22.751Zm0-21.164A7.988,7.988,0,0,0,1.837,7.837C.695,12.819,3.825,17.113,6.66,19.831a4.681,4.681,0,0,0,6.526,0c2.824-2.718,5.955-7.012,4.834-11.994A8.017,8.017,0,0,0,9.917,1.587Z" transform="translate(2.775 1.322)" fill="#bdc1c2"/>
  <path id="Vector-3" data-name="Vector" d="M0,0H25.384V25.384H0Z" fill="none" opacity="0"/>
</svg>
