<svg xmlns="http://www.w3.org/2000/svg" width="413.252" height="427.821" viewBox="0 0 413.252 427.821">
  <g id="notFound" transform="translate(-43.374 -42.294)">
    <g id="Background_Complete">
      <g id="Group_11" data-name="Group 11">
        <g id="Group_1" data-name="Group 1">
          <path id="Path_1" data-name="Path 1" d="M92.637,317.145l-14.833.279-7.515.112c-2.51.047-5.032.038-7.549.055l-.444,0,0-.449-.054-12.633,0-.5.5,0,14.948.063c4.983.005,9.965.112,14.948.164l.275,0,0,.27c-.019,2.139-.086,4.268-.131,6.375Zm0,0L92.5,310.77c-.045-2.1-.112-4.186-.131-6.258l.273.273c-4.983.051-9.965.159-14.948.164l-14.948.063.5-.5-.054,12.633-.446-.446c2.466.018,4.927.008,7.4.055l7.433.112Z" fill="#ebebeb"/>
        </g>
        <g id="Group_2" data-name="Group 2">
          <path id="Path_2" data-name="Path 2" d="M75.959,333.075l-14.833.279-7.515.112c-2.51.047-5.032.038-7.549.055l-.444,0,0-.449-.054-12.633,0-.5.5,0L61.01,320c4.983.005,9.965.112,14.948.164l.275,0,0,.27c-.019,2.139-.086,4.268-.131,6.375Zm0,0-.142-6.375c-.045-2.1-.112-4.186-.131-6.258l.273.273c-4.983.051-9.965.159-14.948.164l-14.948.063.5-.5-.054,12.633-.446-.446c2.466.018,4.927.008,7.4.055l7.433.112Z" fill="#ebebeb"/>
        </g>
        <g id="Group_3" data-name="Group 3">
          <path id="Path_3" data-name="Path 3" d="M75.959,59.714l-14.833.279-7.515.112c-2.51.047-5.032.037-7.549.055l-.444,0,0-.449-.054-12.633,0-.5.5,0,14.948.063c4.983.005,9.965.112,14.948.164l.275,0,0,.27c-.019,2.139-.086,4.268-.131,6.375Zm0,0-.142-6.375c-.045-2.1-.112-4.186-.131-6.258l.273.273c-4.983.051-9.965.159-14.948.164l-14.948.062.5-.5-.054,12.633-.446-.446c2.466.018,4.927.008,7.4.055l7.433.112Z" fill="#ebebeb"/>
        </g>
        <g id="Group_4" data-name="Group 4">
          <path id="Path_4" data-name="Path 4" d="M453.937,59.714l-14.833.279-7.515.112c-2.51.047-5.032.037-7.549.055l-.444,0,0-.449-.054-12.633,0-.5.5,0,14.948.063c4.983.005,9.965.112,14.948.164l.275,0,0,.27c-.019,2.139-.086,4.268-.131,6.375Zm0,0-.142-6.375c-.045-2.1-.112-4.186-.131-6.258l.273.273c-4.983.051-9.966.159-14.948.164l-14.948.063.5-.5-.054,12.633-.446-.446c2.466.018,4.927.008,7.4.055l7.433.112Z" fill="#ebebeb"/>
        </g>
        <g id="Group_5" data-name="Group 5">
          <path id="Path_5" data-name="Path 5" d="M437.26,75.644l-14.833.279-7.515.112c-2.51.047-5.032.037-7.549.055l-.444,0,0-.449-.054-12.633,0-.5.5,0,14.948.063c4.983.005,9.965.112,14.948.164l.275,0,0,.27c-.019,2.139-.086,4.268-.131,6.375Zm0,0-.142-6.375c-.045-2.1-.112-4.186-.131-6.258l.273.273c-4.983.051-9.965.159-14.948.164l-14.948.063.5-.5-.054,12.633-.446-.446c2.466.018,4.927.008,7.4.055l7.433.112Z" fill="#ebebeb"/>
        </g>
        <g id="Group_6" data-name="Group 6">
          <path id="Path_6" data-name="Path 6" d="M360.692,223.437l-14.833.279-7.515.112c-2.51.047-5.032.038-7.549.055l-.444,0,0-.449-.054-12.633,0-.5.5,0,14.948.063c4.983.005,9.965.113,14.948.164l.275,0,0,.27c-.019,2.139-.086,4.268-.131,6.375Zm0,0-.142-6.375c-.045-2.1-.112-4.186-.131-6.258l.273.273c-4.983.051-9.966.159-14.948.164L330.8,211.3l.5-.5-.054,12.633-.446-.445c2.466.017,4.927.008,7.4.055l7.433.112Z" fill="#ebebeb"/>
        </g>
        <g id="Group_7" data-name="Group 7">
          <path id="Path_7" data-name="Path 7" d="M344.014,239.367l-14.833.279-7.515.112c-2.51.047-5.032.037-7.549.055l-.444,0,0-.449-.054-12.633,0-.5.5,0,14.948.063c4.983.005,9.965.113,14.948.164l.275,0,0,.27c-.019,2.139-.086,4.268-.131,6.375Zm0,0-.142-6.375c-.045-2.1-.112-4.186-.131-6.258l.273.273c-4.983.051-9.965.159-14.948.164l-14.948.063.5-.5-.054,12.633-.446-.446c2.466.018,4.927.008,7.4.055l7.433.112Z" fill="#ebebeb"/>
        </g>
        <g id="Group_8" data-name="Group 8">
          <path id="Path_8" data-name="Path 8" d="M327.4,223.437l-14.833.279-7.515.112c-2.51.047-5.032.038-7.549.055l-.444,0,0-.449-.054-12.633,0-.5.5,0,14.948.063c4.983.005,9.965.113,14.948.164l.275,0,0,.27c-.019,2.139-.086,4.268-.131,6.375Zm0,0-.142-6.375c-.045-2.1-.112-4.186-.131-6.258l.273.273c-4.983.051-9.966.159-14.948.164l-14.948.063.5-.5-.054,12.633-.446-.445c2.466.017,4.927.008,7.4.055l7.433.112Z" fill="#ebebeb"/>
        </g>
        <g id="Group_9" data-name="Group 9">
          <path id="Path_9" data-name="Path 9" d="M453.937,333.075l-14.833.279-7.515.112c-2.51.047-5.032.038-7.549.055l-.444,0,0-.449-.054-12.633,0-.5.5,0,14.948.063c4.983.005,9.966.112,14.948.164l.275,0,0,.27c-.019,2.139-.086,4.268-.131,6.375Zm0,0L453.8,326.7c-.045-2.1-.112-4.186-.131-6.258l.273.273c-4.983.051-9.965.159-14.948.164l-14.948.063.5-.5-.054,12.633-.446-.446c2.466.018,4.927.008,7.4.055l7.433.112Z" fill="#ebebeb"/>
        </g>
        <g id="Group_10" data-name="Group 10">
          <path id="Path_10" data-name="Path 10" d="M199.926,97.281l-14.833.279-7.515.112c-2.51.047-5.032.037-7.549.055l-.444,0,0-.449-.054-12.633,0-.5.5,0,14.948.063c4.983,0,9.965.112,14.948.164l.275,0,0,.27c-.019,2.139-.086,4.268-.131,6.375Zm0,0-.142-6.375c-.045-2.1-.112-4.186-.131-6.258l.273.273c-4.983.051-9.965.159-14.948.164l-14.948.063.5-.5-.054,12.633-.446-.446c2.466.018,4.927.008,7.4.055l7.433.112Z" fill="#ebebeb"/>
        </g>
      </g>
      <g id="Group_12" data-name="Group 12">
        <path id="Path_11" data-name="Path 11" d="M423.225,180.971l5.887-9.491-2.907-1.8a2.654,2.654,0,0,1-1.232-2.5,15.751,15.751,0,0,0,.053-1.67,2.652,2.652,0,0,1,1.386-2.41l3.013-1.616-5.28-9.845-3.012,1.616a2.653,2.653,0,0,1-2.774-.179,15.794,15.794,0,0,0-1.42-.88,2.655,2.655,0,0,1-1.4-2.408l.108-3.418-11.163-.347-.1,3.43a2.658,2.658,0,0,1-1.557,2.311q-.371.176-.734.37t-.714.407a2.649,2.649,0,0,1-2.773.021l-2.928-1.814-5.887,9.491,2.912,1.807a2.656,2.656,0,0,1,1.23,2.5,15.612,15.612,0,0,0-.055,1.663,2.653,2.653,0,0,1-1.386,2.407l-3.014,1.616,5.28,9.845,3.014-1.616a2.653,2.653,0,0,1,2.772.177,15.529,15.529,0,0,0,1.416.874,2.655,2.655,0,0,1,1.4,2.408l-.105,3.426,11.163.347.107-3.427a2.654,2.654,0,0,1,1.552-2.3c.248-.117.495-.242.74-.373s.481-.266.715-.407a2.661,2.661,0,0,1,2.787-.019Zm-9.451-7.048a9.149,9.149,0,1,1,3.745-12.385A9.142,9.142,0,0,1,413.774,173.923Z" fill="#ebebeb"/>
        <path id="Path_12" data-name="Path 12" d="M101.53,288.51l5.887-9.491-2.907-1.8a2.654,2.654,0,0,1-1.232-2.5,15.488,15.488,0,0,0,.053-1.67,2.652,2.652,0,0,1,1.386-2.41l3.013-1.616-5.28-9.845L99.438,260.8a2.653,2.653,0,0,1-2.774-.179,15.791,15.791,0,0,0-1.42-.88,2.655,2.655,0,0,1-1.4-2.408l.108-3.418-11.163-.347-.1,3.43A2.658,2.658,0,0,1,81.13,259.3c-.247.116-.492.24-.734.37s-.481.266-.714.407a2.649,2.649,0,0,1-2.773.021l-2.928-1.814-5.887,9.491,2.912,1.807a2.656,2.656,0,0,1,1.23,2.5,15.627,15.627,0,0,0-.055,1.663,2.653,2.653,0,0,1-1.386,2.407l-3.014,1.616,5.28,9.845L76.075,286a2.653,2.653,0,0,1,2.772.177,15.528,15.528,0,0,0,1.416.874,2.655,2.655,0,0,1,1.4,2.408l-.105,3.426,11.163.347.107-3.427a2.652,2.652,0,0,1,1.552-2.3c.248-.117.5-.242.74-.373s.481-.266.715-.407a2.661,2.661,0,0,1,2.787-.019Zm-9.452-7.048a9.149,9.149,0,1,1,3.745-12.385A9.142,9.142,0,0,1,92.078,281.462Z" fill="#ebebeb"/>
        <path id="Path_13" data-name="Path 13" d="M215.868,106.738l-3.91-6.777-2.074,1.2a1.857,1.857,0,0,1-1.95-.066,10.928,10.928,0,0,0-1.013-.586,1.859,1.859,0,0,1-1.029-1.653V96.46h-7.826v2.395a1.859,1.859,0,0,1-1.029,1.653,10.706,10.706,0,0,0-1.013.586,1.859,1.859,0,0,1-1.95.066L192,99.962l-3.91,6.777,2.083,1.2a1.862,1.862,0,0,1,.911,1.726q-.015.287-.015.576t.015.576a1.856,1.856,0,0,1-.9,1.719l-2.089,1.207,3.91,6.777,2.08-1.2a1.861,1.861,0,0,1,1.951.068,10.842,10.842,0,0,0,1.009.584,1.86,1.86,0,0,1,1.027,1.653v2.4h7.826v-2.4a1.86,1.86,0,0,1,1.027-1.653,10.826,10.826,0,0,0,1.008-.584,1.861,1.861,0,0,1,1.951-.068l2.08,1.2,3.91-6.777-2.08-1.2a1.858,1.858,0,0,1-.908-1.721c.01-.192.014-.385.014-.58s-.005-.385-.014-.576a1.864,1.864,0,0,1,.911-1.727Zm-7.48,3.5a6.409,6.409,0,1,1-6.406-6.412A6.4,6.4,0,0,1,208.388,110.24Z" fill="#ebebeb"/>
      </g>
    </g>
    <g id="Plant">
      <g id="Group_19" data-name="Group 19">
        <g id="Group_14" data-name="Group 14">
          <path id="Path_14" data-name="Path 14" d="M88.835,303.84c-13.069,12.794-15.262,32.587-12.508,49.924.071.393.68.286.68-.083,0-3.947-.119-7.858-.107-11.757.071-.179.131-.346.2-.525,3.41-2.48,6.546-5.282,8.49-9.122,2.182-4.292,3.04-9.134,4.71-13.617.155-.429-.3-.3-.6-.082-7.949,5.862-10.483,12.172-12.764,20.6a70.1,70.1,0,0,1,1.383-13.128c1.717-8,5.115-15.93,10.863-21.868C89.4,303.959,89.062,303.613,88.835,303.84Z" fill="#263238"/>
          <g id="Group_13" data-name="Group 13">
            <path id="Path_15" data-name="Path 15" d="M91.291,305.331c2.248.076,3.658,3.669,5.41,4.718a1.685,1.685,0,0,0,2.481-.39c1.736-2.423-.646-5.413-2.886-7.085,1.6.659,2.931,1.816,4.658,2.144a1.624,1.624,0,0,0,2.1-1.259c.761-3.3-3.383-4.774-6.226-4.843,1.378-.958,5.329-3.563,3.23-4.844-2.127-1.286-6.763,2.439-8.275,3.665-2.222,1.8-4.873,4.5-4.973,7.318C86.683,308.048,89.561,306.022,91.291,305.331Z" fill="#ffc727"/>
            <path id="Path_16" data-name="Path 16" d="M91.291,305.331c2.248.076,3.658,3.669,5.41,4.718a1.685,1.685,0,0,0,2.481-.39c1.736-2.423-.646-5.413-2.886-7.085,1.6.659,2.931,1.816,4.658,2.144a1.624,1.624,0,0,0,2.1-1.259c.761-3.3-3.383-4.774-6.226-4.843,1.378-.958,5.329-3.563,3.23-4.844-2.127-1.286-6.763,2.439-8.275,3.665-2.222,1.8-4.873,4.5-4.973,7.318C86.683,308.048,89.561,306.022,91.291,305.331Z" opacity="0.1"/>
            <path id="Path_17" data-name="Path 17" d="M90.641,305.886c2.875-1.307,8.4.574,8.866-.514.952-2.214-3.461-3.734-5.843-4.028,2.194-.594,6.4-1.541,6.268-3.657-.158-2.583-6.447-.362-9.63,2.079-4.01,3.075-3.984,6.042-3.321,6.636C87.89,307.218,90.166,306.1,90.641,305.886Z" fill="#ffc727"/>
          </g>
        </g>
        <g id="Group_16" data-name="Group 16">
          <path id="Path_18" data-name="Path 18" d="M59.073,302.573c13.545,12.288,16.491,31.983,14.4,49.413-.056.4-.668.312-.682-.057-.15-3.944-.18-7.857-.34-11.752-.078-.176-.144-.34-.223-.517-3.5-2.349-6.742-5.029-8.83-8.792-2.344-4.206-3.386-9.011-5.224-13.428-.171-.423.291-.315.6-.105,8.166,5.556,10.939,11.765,13.539,20.1a70.217,70.217,0,0,0-1.881-13.066c-2.02-7.93-5.717-15.724-11.686-21.439C58.518,302.714,58.838,302.355,59.073,302.573Z" fill="#263238"/>
          <g id="Group_15" data-name="Group 15">
            <path id="Path_19" data-name="Path 19" d="M56.676,304.157c-2.244.161-3.515,3.806-5.226,4.92a1.685,1.685,0,0,1-2.494-.3c-1.827-2.356.439-5.434,2.614-7.19-1.576.719-2.86,1.926-4.573,2.32a1.625,1.625,0,0,1-2.15-1.178c-.886-3.273,3.2-4.9,6.037-5.076-1.414-.9-5.461-3.358-3.412-4.718,2.076-1.366,6.851,2.179,8.408,3.348,2.289,1.717,5.04,4.309,5.248,7.123C61.383,306.7,58.431,304.781,56.676,304.157Z" fill="#ffc727"/>
            <path id="Path_20" data-name="Path 20" d="M56.676,304.157c-2.244.161-3.515,3.806-5.226,4.92a1.685,1.685,0,0,1-2.494-.3c-1.827-2.356.439-5.434,2.614-7.19-1.576.719-2.86,1.926-4.573,2.32a1.625,1.625,0,0,1-2.15-1.178c-.886-3.273,3.2-4.9,6.037-5.076-1.414-.9-5.461-3.358-3.412-4.718,2.076-1.366,6.851,2.179,8.408,3.348,2.289,1.717,5.04,4.309,5.248,7.123C61.383,306.7,58.431,304.781,56.676,304.157Z" opacity="0.1"/>
            <path id="Path_21" data-name="Path 21" d="M57.347,304.686c-2.922-1.2-8.369.893-8.879-.176-1.035-2.177,3.316-3.862,5.685-4.247-2.215-.51-6.451-1.3-6.4-3.415.059-2.587,6.428-.607,9.7,1.711,4.124,2.92,4.211,5.886,3.571,6.505C60.146,305.913,57.829,304.884,57.347,304.686Z" fill="#ffc727"/>
          </g>
        </g>
        <g id="Group_18" data-name="Group 18">
          <path id="Path_22" data-name="Path 22" d="M72.925,335.026a133.179,133.179,0,0,0,4.206,19.429.484.484,0,0,0,.947-.191c-.89-5.987-2.512-11.864-3.4-17.851a89.883,89.883,0,0,1-1.04-18.327c.57-10.089,3.31-20.821,9.894-28.716.145-.187-.162-.452-.311-.278-13.181,15.368-11.084,34.211-11.072,35.9-1.866-6.363-3.789-13.655-10.847-20.134-.3-.28-.542-.147-.491.328,1.262,11.8,4.543,17.962,11.385,24.271C72.387,331.327,72.628,333.188,72.925,335.026Z" fill="#263238"/>
          <g id="Group_17" data-name="Group 17">
            <path id="Path_23" data-name="Path 23" d="M83.648,291.137c2.371-1.053,5.642,1.966,7.988,2.172a1.944,1.944,0,0,0,2.378-1.653c.582-3.389-3.395-5.291-6.561-5.9,1.994-.123,3.955.409,5.912-.12a1.874,1.874,0,0,0,1.549-2.365c-.874-3.812-5.913-3.251-8.9-1.891.948-1.688,3.735-6.38.913-6.652-2.854-.264-5.789,5.934-6.741,7.968-1.4,2.99-2.792,7.119-1.476,10.1C80.235,296.275,82.2,292.724,83.648,291.137Z" fill="#ffc727"/>
            <path id="Path_24" data-name="Path 24" d="M83.648,291.137c2.371-1.053,5.642,1.966,7.988,2.172a1.944,1.944,0,0,0,2.378-1.653c.582-3.389-3.395-5.291-6.561-5.9,1.994-.123,3.955.409,5.912-.12a1.874,1.874,0,0,0,1.549-2.365c-.874-3.812-5.913-3.251-8.9-1.891.948-1.688,3.735-6.38.913-6.652-2.854-.264-5.789,5.934-6.741,7.968-1.4,2.99-2.792,7.119-1.476,10.1C80.235,296.275,82.2,292.724,83.648,291.137Z" opacity="0.1"/>
            <path id="Path_25" data-name="Path 25" d="M83.252,292.04c2.325-2.8,9-3.631,8.94-5-.127-2.776-5.47-2.131-8.09-1.238,1.977-1.721,5.861-4.819,4.662-6.949-1.464-2.6-6.871,2.87-8.945,7.005-2.613,5.209-1.093,8.274-.105,8.557C81.069,294.806,82.869,292.5,83.252,292.04Z" fill="#ffc727"/>
          </g>
        </g>
        <path id="Path_26" data-name="Path 26" d="M64.253,338.578,58.44,382.994H93.814c-.729-3.936-7.313-44.467-7.313-44.467Z" fill="#ffc727"/>
      </g>
    </g>
    <g id="Floor">
      <g id="Group_20" data-name="Group 20">
        <path id="Path_27" data-name="Path 27" d="M43.374,383.143,95.03,382.9l51.657-.088L250,382.644l103.313.167,51.656.088,51.657.244-51.657.245-51.656.088L250,383.642l-103.313-.167-51.657-.089Z" fill="#263238"/>
      </g>
    </g>
    <g id="Shadow">
      <ellipse id="Ellipse_1" data-name="Ellipse 1" cx="149.057" cy="21.075" rx="149.057" ry="21.075" transform="translate(100.943 427.965)" fill="#ebebeb"/>
    </g>
    <g id="_x34_04_Error">
      <g id="Group_23" data-name="Group 23">
        <g id="Group_21" data-name="Group 21">
          <path id="Path_28" data-name="Path 28" d="M157.573,227.672l-6.209-24.43-49.038,12.463-6.481-25.5,39.188-89.312,19.437-4.94,18.9,74.359,15.692-3.988L195.586,192l-15.692,3.988,6.209,24.43Zm-33.6-44.806,24.252-6.163-8.022-31.563Z" fill="#263238" stroke="#fff" stroke-width="2"/>
          <path id="Path_29" data-name="Path 29" d="M298.021,146.118a65.529,65.529,0,0,1-3.68,22.355,55.481,55.481,0,0,1-10.121,17.663,45.8,45.8,0,0,1-15.178,11.591A43.924,43.924,0,0,1,250,201.867a44.509,44.509,0,0,1-19.135-4.14,45.506,45.506,0,0,1-15.271-11.591,54.076,54.076,0,0,1-10.027-17.663,71.432,71.432,0,0,1,0-44.709A54.094,54.094,0,0,1,215.592,106.1a46.6,46.6,0,0,1,15.271-11.683A43.715,43.715,0,0,1,250,90.186a43.144,43.144,0,0,1,19.044,4.232A46.948,46.948,0,0,1,284.22,106.1a55.482,55.482,0,0,1,10.121,17.663A65.523,65.523,0,0,1,298.021,146.118Zm-29.623,0q0-12.876-5.152-20.883t-13.247-8q-8.465,0-13.523,8t-5.06,20.883q0,12.881,5.06,20.791T250,174.821q8.1,0,13.247-7.912T268.4,146.118Z" fill="#263238" stroke="#fff" stroke-width="2"/>
          <path id="Path_30" data-name="Path 30" d="M350.843,222.964l4.031-24.882-49.945-8.092,4.208-25.972,71.508-66.325,19.8,3.207-12.27,75.736,15.983,2.589-4.237,26.154-15.983-2.589L379.9,227.672Zm-12.981-54.478,24.7,4,5.208-32.147Z" fill="#263238" stroke="#fff" stroke-width="2"/>
        </g>
        <g id="Group_22" data-name="Group 22">
          <path id="Path_31" data-name="Path 31" d="M208.675,72.461a13.035,13.035,0,0,1-5.716-1.232,14.018,14.018,0,0,1-4.4-3.272A15.171,15.171,0,0,1,194.7,57.919a14.411,14.411,0,0,1,1.07-5.494,15.167,15.167,0,0,1,2.949-4.646,14.064,14.064,0,0,1,4.464-3.212,13.254,13.254,0,0,1,5.615-1.191,12.6,12.6,0,0,1,5.676,1.272,14.167,14.167,0,0,1,4.383,3.333,15.369,15.369,0,0,1,2.828,4.686A14.753,14.753,0,0,1,222.693,58a14.528,14.528,0,0,1-1.05,5.474,14.872,14.872,0,0,1-2.909,4.605,13.984,13.984,0,0,1-4.443,3.191A13.265,13.265,0,0,1,208.675,72.461Zm-8.322-14.543a11.533,11.533,0,0,0,.565,3.6,9.582,9.582,0,0,0,1.636,3.07,8.128,8.128,0,0,0,2.626,2.141,8.134,8.134,0,0,0,7.11-.02,8.127,8.127,0,0,0,2.626-2.2,9.824,9.824,0,0,0,1.616-3.09,11.465,11.465,0,0,0,.545-3.495,11.192,11.192,0,0,0-.586-3.6,9.939,9.939,0,0,0-1.656-3.07,7.923,7.923,0,0,0-2.625-2.121,8.182,8.182,0,0,0-7.09.04,7.969,7.969,0,0,0-2.625,2.181,9.8,9.8,0,0,0-1.6,3.07A11.486,11.486,0,0,0,200.353,57.918Z" fill="#263238" stroke="#fff" stroke-width="2"/>
          <path id="Path_32" data-name="Path 32" d="M236.226,72.663a11.6,11.6,0,0,1-4.645-.889,10.436,10.436,0,0,1-3.495-2.4,10.617,10.617,0,0,1-2.2-3.5,11.764,11.764,0,0,1,0-8.362,10.606,10.606,0,0,1,2.2-3.494,10.438,10.438,0,0,1,3.495-2.4,11.621,11.621,0,0,1,4.645-.889,11.49,11.49,0,0,1,4.626.889,10.5,10.5,0,0,1,3.474,2.4,10.623,10.623,0,0,1,2.2,3.494,11.779,11.779,0,0,1,0,8.362,10.805,10.805,0,0,1-2.181,3.5,10.2,10.2,0,0,1-3.474,2.4A11.642,11.642,0,0,1,236.226,72.663Zm-5.535-10.948a7.388,7.388,0,0,0,.424,2.565,6.277,6.277,0,0,0,1.171,2,5.247,5.247,0,0,0,1.757,1.313,5.35,5.35,0,0,0,4.363,0,5.221,5.221,0,0,0,1.757-1.313,6.218,6.218,0,0,0,1.171-2.02,7.537,7.537,0,0,0,.424-2.585,7.448,7.448,0,0,0-.424-2.545,6.236,6.236,0,0,0-1.171-2.02,5.254,5.254,0,0,0-1.757-1.313,5.15,5.15,0,0,0-2.181-.465,4.976,4.976,0,0,0-2.182.485,5.486,5.486,0,0,0-1.757,1.333,6.2,6.2,0,0,0-1.171,2.02A7.424,7.424,0,0,0,230.691,61.715Z" fill="#263238" stroke="#fff" stroke-width="2"/>
          <path id="Path_33" data-name="Path 33" d="M263.613,72.663a8.332,8.332,0,0,1-4.362-1.111,7.894,7.894,0,0,1-2.909-3.009V80.864h-5.413V51.091h4.726v3.635a8.647,8.647,0,0,1,3.03-2.929,8.426,8.426,0,0,1,4.281-1.07,9.063,9.063,0,0,1,3.959.869,9.8,9.8,0,0,1,3.131,2.343,10.925,10.925,0,0,1,2.061,3.474,11.967,11.967,0,0,1,.747,4.222,13.33,13.33,0,0,1-.687,4.322,11.066,11.066,0,0,1-1.919,3.515,8.954,8.954,0,0,1-2.929,2.343A8.193,8.193,0,0,1,263.613,72.663ZM261.8,68.058a4.866,4.866,0,0,0,2.242-.525,5.436,5.436,0,0,0,1.757-1.414,6.653,6.653,0,0,0,1.131-2.061,7.361,7.361,0,0,0,.4-2.423,6.84,6.84,0,0,0-.444-2.484,6.184,6.184,0,0,0-1.232-2,5.749,5.749,0,0,0-1.858-1.333,5.567,5.567,0,0,0-2.322-.485,5.078,5.078,0,0,0-1.575.263,5.528,5.528,0,0,0-1.495.748,6.574,6.574,0,0,0-1.232,1.131,4.71,4.71,0,0,0-.828,1.414v4.969a7.2,7.2,0,0,0,2.222,3.009A5.075,5.075,0,0,0,261.8,68.058Z" fill="#263238" stroke="#fff" stroke-width="2"/>
          <path id="Path_34" data-name="Path 34" d="M284.539,72.663a16.388,16.388,0,0,1-5.211-.848,12.7,12.7,0,0,1-4.363-2.424L276.985,66a17.387,17.387,0,0,0,3.777,2.08,10.114,10.114,0,0,0,3.656.707,4.625,4.625,0,0,0,2.545-.606,1.953,1.953,0,0,0,.929-1.737,1.734,1.734,0,0,0-1.091-1.656,23.569,23.569,0,0,0-3.555-1.212q-2.059-.565-3.515-1.091a8.98,8.98,0,0,1-2.343-1.192,4.077,4.077,0,0,1-1.293-1.535,4.893,4.893,0,0,1-.4-2.081,6.585,6.585,0,0,1,.626-2.909,6.341,6.341,0,0,1,1.757-2.2,8.138,8.138,0,0,1,2.646-1.393,10.748,10.748,0,0,1,3.292-.485,14.155,14.155,0,0,1,4.464.687,10.87,10.87,0,0,1,3.817,2.222l-2.182,3.272a12.647,12.647,0,0,0-3.131-1.777,8.557,8.557,0,0,0-3.009-.565,4.365,4.365,0,0,0-2.3.565,1.967,1.967,0,0,0-.93,1.818,1.749,1.749,0,0,0,.223.929,1.948,1.948,0,0,0,.707.646,6.792,6.792,0,0,0,1.272.545q.787.264,1.959.545,2.181.565,3.736,1.131A10.2,10.2,0,0,1,291.181,62a4.613,4.613,0,0,1,1.455,1.676,5.161,5.161,0,0,1,.464,2.283,5.887,5.887,0,0,1-2.3,4.908A9.886,9.886,0,0,1,284.539,72.663Z" fill="#263238" stroke="#fff" stroke-width="2"/>
          <path id="Path_35" data-name="Path 35" d="M297.667,61.473V43.294h5.413V61.473Zm0,10.786v-6.1h5.413v6.1Z" fill="#263238" stroke="#fff" stroke-width="2"/>
        </g>
      </g>
    </g>
    <g id="Robot">
      <g id="Group_66" data-name="Group 66">
        <g id="Group_24" data-name="Group 24">
          <rect id="Rectangle_1" data-name="Rectangle 1" width="35.512" height="2.909" transform="translate(235.089 313.845)" fill="#37474f"/>
          <rect id="Rectangle_2" data-name="Rectangle 2" width="35.512" height="2.909" transform="translate(235.089 317.634)" fill="#37474f"/>
          <rect id="Rectangle_3" data-name="Rectangle 3" width="35.512" height="2.909" transform="translate(235.089 321.424)" fill="#37474f"/>
          <rect id="Rectangle_4" data-name="Rectangle 4" width="35.512" height="2.909" transform="translate(235.089 325.213)" fill="#37474f"/>
          <rect id="Rectangle_5" data-name="Rectangle 5" width="35.512" height="2.909" transform="translate(235.089 329.002)" fill="#37474f"/>
        </g>
        <g id="Group_25" data-name="Group 25">
          <rect id="Rectangle_6" data-name="Rectangle 6" width="67.516" height="2.909" transform="translate(218.458 404.594)" fill="#37474f"/>
          <rect id="Rectangle_7" data-name="Rectangle 7" width="67.516" height="2.909" transform="translate(218.458 408.383)" fill="#37474f"/>
          <rect id="Rectangle_8" data-name="Rectangle 8" width="67.516" height="2.909" transform="translate(218.458 412.172)" fill="#37474f"/>
          <rect id="Rectangle_9" data-name="Rectangle 9" width="67.516" height="2.909" transform="translate(218.458 415.961)" fill="#37474f"/>
          <rect id="Rectangle_10" data-name="Rectangle 10" width="67.516" height="2.909" transform="translate(218.458 419.751)" fill="#37474f"/>
        </g>
        <g id="Group_37" data-name="Group 37">
          <g id="Group_26" data-name="Group 26">
            <path id="Path_36" data-name="Path 36" d="M188.834,289.8c.033-.393-14.777-5.354-14.777-5.354l.875-50.886,19.639-4.214Z" fill="#ffc727"/>
            <path id="Path_37" data-name="Path 37" d="M188.834,289.8c.033-.393-14.777-5.354-14.777-5.354l.875-50.886,19.639-4.214Z" opacity="0.2"/>
          </g>
          <g id="Group_27" data-name="Group 27">
            <path id="Path_38" data-name="Path 38" d="M324.489,309.772c.1-.381,15.718.058,15.718.058l16.69-48.079-16.989-10.715Z" fill="#ffc727"/>
            <path id="Path_39" data-name="Path 39" d="M324.489,309.772c.1-.381,15.718.058,15.718.058l16.69-48.079-16.989-10.715Z" opacity="0.2"/>
          </g>
          <path id="Path_40" data-name="Path 40" d="M185.983,308.536s5.491-82.3,10.307-109.371c0,0,99.417,7.519,153.086,28.032,0,0-27.669,96.128-29.1,100.9C320.275,328.1,250.267,314.3,185.983,308.536Z" fill="#ffc727"/>
          <g id="Group_28" data-name="Group 28">
            <path id="Path_41" data-name="Path 41" d="M274.722,210.155q-2.424,14.863-4.945,29.711l-5.124,29.679-.276-.419,33.311,7.913,16.638,4.032,16.619,4.112-16.707-3.739-16.688-3.818-33.341-7.788-.337-.079.061-.341,5.3-29.647Q271.913,224.951,274.722,210.155Z" opacity="0.1"/>
            <path id="Path_42" data-name="Path 42" d="M271.067,215.8a1.945,1.945,0,0,1-1.746,1.932,1.942,1.942,0,1,1,0-3.866A1.946,1.946,0,0,1,271.067,215.8Zm0,0a1.557,1.557,0,0,0-1.745-1.557,1.571,1.571,0,0,0,0,3.116,1.558,1.558,0,0,0,1.745-1.559Z" opacity="0.1"/>
            <path id="Path_43" data-name="Path 43" d="M269.321,228.048a1.944,1.944,0,0,1-1.746,1.932,1.942,1.942,0,1,1,0-3.866A1.946,1.946,0,0,1,269.321,228.048Zm0,0a1.557,1.557,0,0,0-1.745-1.557,1.571,1.571,0,0,0,0,3.116,1.559,1.559,0,0,0,1.745-1.559Z" opacity="0.1"/>
            <path id="Path_44" data-name="Path 44" d="M267.171,240.987a1.944,1.944,0,0,1-1.746,1.932,1.942,1.942,0,1,1,0-3.866A1.945,1.945,0,0,1,267.171,240.987Zm0,0a1.557,1.557,0,0,0-1.745-1.557,1.571,1.571,0,0,0,0,3.116,1.558,1.558,0,0,0,1.745-1.559Z" opacity="0.1"/>
            <path id="Path_45" data-name="Path 45" d="M265.021,253.926a1.944,1.944,0,0,1-1.746,1.932,1.942,1.942,0,1,1,0-3.866A1.944,1.944,0,0,1,265.021,253.926Zm0,0a1.559,1.559,0,0,0-1.746-1.557,1.571,1.571,0,0,0,0,3.116,1.559,1.559,0,0,0,1.746-1.559Z" opacity="0.1"/>
            <path id="Path_46" data-name="Path 46" d="M272.347,274.561a1.944,1.944,0,0,1-1.746,1.932,1.942,1.942,0,1,1,0-3.866A1.946,1.946,0,0,1,272.347,274.561Zm0,0A1.559,1.559,0,0,0,270.6,273a1.571,1.571,0,0,0,0,3.116,1.561,1.561,0,0,0,1.746-1.559Z" opacity="0.1"/>
            <path id="Path_47" data-name="Path 47" d="M284.56,277.54a1.943,1.943,0,0,1-1.746,1.932,1.942,1.942,0,1,1,0-3.866A1.945,1.945,0,0,1,284.56,277.54Zm0,0a1.557,1.557,0,0,0-1.745-1.557,1.571,1.571,0,0,0,0,3.116,1.559,1.559,0,0,0,1.745-1.559Z" opacity="0.1"/>
            <path id="Path_48" data-name="Path 48" d="M296.774,280.52a1.945,1.945,0,0,1-1.746,1.932,1.942,1.942,0,1,1,0-3.866A1.946,1.946,0,0,1,296.774,280.52Zm0,0a1.557,1.557,0,0,0-1.745-1.557,1.571,1.571,0,0,0,0,3.116,1.559,1.559,0,0,0,1.745-1.559Z" opacity="0.1"/>
            <path id="Path_49" data-name="Path 49" d="M308.987,283.5a1.944,1.944,0,0,1-1.746,1.932,1.942,1.942,0,1,1,0-3.866A1.945,1.945,0,0,1,308.987,283.5Zm0,0a1.557,1.557,0,0,0-1.745-1.557,1.571,1.571,0,0,0,0,3.116,1.558,1.558,0,0,0,1.745-1.559Z" opacity="0.1"/>
            <path id="Path_50" data-name="Path 50" d="M321.2,286.612a1.943,1.943,0,0,1-1.889,1.792,1.942,1.942,0,1,1,.3-3.854A1.945,1.945,0,0,1,321.2,286.612Zm0,0a1.558,1.558,0,0,0-1.621-1.687,1.571,1.571,0,0,0-.24,3.107,1.56,1.56,0,0,0,1.861-1.42Z" opacity="0.1"/>
            <path id="Path_51" data-name="Path 51" d="M262.871,266.865a1.944,1.944,0,0,1-1.746,1.932,1.942,1.942,0,1,1,0-3.866A1.944,1.944,0,0,1,262.871,266.865Zm0,0a1.559,1.559,0,0,0-1.746-1.557,1.571,1.571,0,0,0,0,3.116,1.562,1.562,0,0,0,1.746-1.559Z" opacity="0.1"/>
          </g>
          <g id="Group_35" data-name="Group 35">
            <g id="Group_30" data-name="Group 30">
              <circle id="Ellipse_2" data-name="Ellipse 2" cx="28.231" cy="28.231" r="28.231" transform="translate(183.56 265.194) rotate(-41.96)" opacity="0.2"/>
              <circle id="Ellipse_3" data-name="Ellipse 3" cx="22.641" cy="22.641" r="22.641" transform="matrix(0.354, -0.935, 0.935, 0.354, 194.231, 280.471)" fill="#263238"/>
              <g id="Group_29" data-name="Group 29">
                <rect id="Rectangle_11" data-name="Rectangle 11" width="5.362" height="5.362" transform="translate(216.77 258.131) rotate(9.201)" fill="#ffc727"/>
                <rect id="Rectangle_12" data-name="Rectangle 12" width="5.362" height="5.362" transform="translate(212.334 251.981) rotate(9.201)" fill="#ffc727"/>
                <rect id="Rectangle_13" data-name="Rectangle 13" width="5.362" height="5.362" transform="translate(233.506 255.41) rotate(9.201)" fill="#ffc727"/>
                <rect id="Rectangle_14" data-name="Rectangle 14" width="5.362" height="5.362" transform="translate(208.924 273.032) rotate(9.201)" fill="#ffc727"/>
                <rect id="Rectangle_15" data-name="Rectangle 15" width="5.362" height="5.362" transform="translate(230.095 276.461) rotate(9.201)" fill="#ffc727"/>
                <rect id="Rectangle_16" data-name="Rectangle 16" width="5.362" height="5.362" transform="translate(215.075 268.597) rotate(9.201)" fill="#ffc727"/>
                <rect id="Rectangle_17" data-name="Rectangle 17" width="5.362" height="5.362" transform="translate(221.215 264.221) rotate(9.201)" fill="#ffc727"/>
                <rect id="Rectangle_18" data-name="Rectangle 18" width="5.362" height="5.362" transform="translate(227.356 259.845) rotate(9.201)" fill="#ffc727"/>
                <rect id="Rectangle_19" data-name="Rectangle 19" width="5.362" height="5.362" transform="translate(225.666 270.309) rotate(9.201)" fill="#ffc727"/>
              </g>
            </g>
            <g id="Group_34" data-name="Group 34">
              <g id="Group_31" data-name="Group 31">
                <circle id="Ellipse_4" data-name="Ellipse 4" cx="28.231" cy="28.231" r="28.231" transform="matrix(0.634, -0.774, 0.774, 0.634, 259.462, 283.072)" fill="#ffc727"/>
                <circle id="Ellipse_5" data-name="Ellipse 5" cx="28.231" cy="28.231" r="28.231" transform="matrix(0.634, -0.774, 0.774, 0.634, 259.462, 283.072)" opacity="0.2"/>
                <path id="Path_52" data-name="Path 52" d="M326.66,285.672c-.13.556-.278,1.093-.445,1.63l-55.028-11.737c.13-.982.306-1.964.537-2.955a28.234,28.234,0,0,1,54.936,13.062Z" opacity="0.2"/>
              </g>
              <circle id="Ellipse_6" data-name="Ellipse 6" cx="22.641" cy="22.641" r="22.641" transform="matrix(0.923, -0.386, 0.386, 0.923, 269.568, 266.982)" fill="#263238"/>
              <g id="Group_32" data-name="Group 32">
                <rect id="Rectangle_20" data-name="Rectangle 20" width="5.362" height="26.689" transform="matrix(0.973, 0.231, -0.231, 0.973, 299.674, 265.531)" fill="#ffc727"/>
              </g>
              <g id="Group_33" data-name="Group 33">
                <path id="Path_53" data-name="Path 53" d="M328.3,285.141,270.5,271.4a29.705,29.705,0,0,1,57.8,13.737Z" fill="#ffc727"/>
                <path id="Path_54" data-name="Path 54" d="M328.3,285.141,270.5,271.4a29.705,29.705,0,0,1,57.8,13.737Z" opacity="0.2"/>
              </g>
            </g>
            <path id="Path_55" data-name="Path 55" d="M250.071,295.922a10.449,10.449,0,0,1,2.612-6.356,7.635,7.635,0,0,1,3.07-2.064,8.631,8.631,0,0,1,3.7-.411,6.888,6.888,0,0,1,5.8,4.333,11.562,11.562,0,0,1,.589,6.848,18.119,18.119,0,0,0-1.99-6.137,5.879,5.879,0,0,0-4.614-3.06,7.015,7.015,0,0,0-5.485,1.605A14.805,14.805,0,0,0,250.071,295.922Z" opacity="0.1"/>
          </g>
          <g id="Group_36" data-name="Group 36">
            <path id="Path_56" data-name="Path 56" d="M193.716,238.34c.234-3.016.573-6.018.859-9.027.321-3,.651-6.007,1.016-9,.347-3,.738-5.994,1.122-8.99s.81-5.984,1.212-8.977l.107-.8.81.051q9.771.615,19.505,1.6,4.867.5,9.723,1.126c3.231.464,6.467.892,9.679,1.48L218.232,204.6l-19.5-1.261.917-.748c-.443,2.987-.855,5.978-1.324,8.961s-.917,5.969-1.415,8.948c-.48,2.981-.995,5.958-1.52,8.933C194.834,232.4,194.327,235.377,193.716,238.34Z" fill="#fff"/>
            <path id="Path_57" data-name="Path 57" d="M198.411,261.156a24.634,24.634,0,0,1,4.517-10.09c.551-.757,1.178-1.456,1.781-2.176.653-.674,1.332-1.326,2-1.987.731-.594,1.469-1.183,2.219-1.754.8-.505,1.584-1.032,2.394-1.517.853-.41,1.7-.832,2.562-1.222l2.682-.928,2.776-.573c.932-.136,1.879-.165,2.814-.235a27.21,27.21,0,0,1,10.869,2.083,38.687,38.687,0,0,0-10.78-.715,25.32,25.32,0,0,0-10.073,3.126A29.4,29.4,0,0,0,204,251.917,33.324,33.324,0,0,0,198.411,261.156Z" fill="#fff"/>
            <path id="Path_58" data-name="Path 58" d="M276.287,268.782a24.648,24.648,0,0,1,5.867-9.37c.65-.673,1.368-1.279,2.065-1.909.739-.577,1.5-1.129,2.257-1.692.806-.488,1.618-.969,2.44-1.431.859-.39,1.711-.8,2.581-1.172.9-.288,1.8-.589,2.706-.856l2.785-.549,2.829-.184c.942-.007,1.883.1,2.819.155a27.219,27.219,0,0,1,10.477,3.564,38.652,38.652,0,0,0-10.578-2.2,25.33,25.33,0,0,0-10.408,1.706,29.412,29.412,0,0,0-9.032,5.555A33.267,33.267,0,0,0,276.287,268.782Z" fill="#fff"/>
          </g>
        </g>
        <g id="Group_56" data-name="Group 56">
          <g id="Group_40" data-name="Group 40">
            <g id="Group_38" data-name="Group 38">
              <path id="Path_59" data-name="Path 59" d="M189.141,359.252c-7.232,0-23.064-1.626-33.252-14.725-13.034-16.758-8.323-48.914-8.117-50.275l5.659.859c-.047.309-4.544,31.09,6.976,45.9,11.263,14.481,31.692,12.4,31.9,12.377l.644,5.687A35.3,35.3,0,0,1,189.141,359.252Z" fill="#ffc727"/>
              <path id="Path_60" data-name="Path 60" d="M189.141,359.252c-7.232,0-23.064-1.626-33.252-14.725-13.034-16.758-8.323-48.914-8.117-50.275l5.659.859c-.047.309-4.544,31.09,6.976,45.9,11.263,14.481,31.692,12.4,31.9,12.377l.644,5.687A35.3,35.3,0,0,1,189.141,359.252Z" fill="#fff" opacity="0.4"/>
            </g>
            <path id="Path_61" data-name="Path 61" d="M155.1,299.005a19.721,19.721,0,0,1-3.159-.26c-9.546-1.546-13.772-7.258-15.637-11.778s-2.3-10.01-1.284-16.286l12.106,1.962c-.63,3.888-.447,7.315.515,9.647.686,1.664,2.018,3.662,6.261,4.349,1.938.314,4.033.148,6.227-3.161a22.874,22.874,0,0,0,3.067-8.232l12.106,1.961a35.441,35.441,0,0,1-4.952,13.048C166.557,295.972,161.222,299.005,155.1,299.005Z" fill="#ffc727"/>
            <g id="Group_39" data-name="Group 39">
              <path id="Path_62" data-name="Path 62" d="M201.1,375.633c-.021-.261-10.256-1.9-10.256-1.9l-4.968-33.4,12.4-4.9Z" fill="#ffc727"/>
              <path id="Path_63" data-name="Path 63" d="M201.1,375.633c-.021-.261-10.256-1.9-10.256-1.9l-4.968-33.4,12.4-4.9Z" opacity="0.2"/>
            </g>
          </g>
          <g id="Group_41" data-name="Group 41">
            <path id="Path_64" data-name="Path 64" d="M302.3,375.7c.027-.26,10.3-1.669,10.3-1.669l5.7-33.287-12.286-5.17Z" fill="#ffc727"/>
            <path id="Path_65" data-name="Path 65" d="M302.3,375.7c.027-.26,10.3-1.669,10.3-1.669l5.7-33.287-12.286-5.17Z" opacity="0.2"/>
          </g>
          <path id="Path_66" data-name="Path 66" d="M196.841,327.955s82.786-3.54,110.751,1.121c0,0-8.212,80.106-8.656,81.66,0,0-82.351-.222-95.224,0C203.712,410.736,196.735,357.469,196.841,327.955Z" fill="#ffc727"/>
          <g id="Group_52" data-name="Group 52">
            <path id="Path_67" data-name="Path 67" d="M221.987,349.906s45.193-1.785,60.46.565c0,0-4.483,40.394-4.725,41.177,0,0-44.956-.112-51.983,0C225.737,391.648,222.649,364,221.987,349.906Z" opacity="0.2"/>
            <path id="Path_68" data-name="Path 68" d="M228.164,391.631c-1.035,0-1.855.013-2.429.02,0,0-3.084-27.651-3.751-41.747,0,0,1.028-.04,2.823-.1Z" opacity="0.2"/>
            <g id="Group_46" data-name="Group 46">
              <g id="Group_45" data-name="Group 45">
                <g id="Group_44" data-name="Group 44">
                  <g id="Group_43" data-name="Group 43">
                    <path id="Path_69" data-name="Path 69" d="M241.494,359.873a4.807,4.807,0,1,0,3.137,6.029A4.807,4.807,0,0,0,241.494,359.873Zm2.58,5.853a4.22,4.22,0,1,1-2.754-5.292A4.218,4.218,0,0,1,244.074,365.726Zm-2.58-5.853a4.807,4.807,0,1,0,3.137,6.029A4.807,4.807,0,0,0,241.494,359.873Zm2.58,5.853a4.22,4.22,0,1,1-2.754-5.292A4.218,4.218,0,0,1,244.074,365.726Zm-2.58-5.853a4.807,4.807,0,1,0,3.137,6.029A4.807,4.807,0,0,0,241.494,359.873Zm2.58,5.853a4.22,4.22,0,1,1-2.754-5.292A4.218,4.218,0,0,1,244.074,365.726ZM243.1,354.8A10.132,10.132,0,1,0,249.71,367.5,10.136,10.136,0,0,0,243.1,354.8Zm2.25,11.331a5.553,5.553,0,1,1-3.626-6.965A5.558,5.558,0,0,1,245.346,366.126Zm-.715-.223a4.806,4.806,0,1,0-6.025,3.14A4.806,4.806,0,0,0,244.631,365.9Zm-.557-.177a4.22,4.22,0,1,1-2.754-5.292A4.218,4.218,0,0,1,244.074,365.726Zm-2.58-5.853a4.807,4.807,0,1,0,3.137,6.029A4.807,4.807,0,0,0,241.494,359.873Zm2.58,5.853a4.22,4.22,0,1,1-2.754-5.292A4.218,4.218,0,0,1,244.074,365.726Zm-2.58-5.853a4.807,4.807,0,1,0,3.137,6.029A4.807,4.807,0,0,0,241.494,359.873Zm2.58,5.853a4.22,4.22,0,1,1-2.754-5.292A4.218,4.218,0,0,1,244.074,365.726Z" fill="#ffc727"/>
                    <g id="Group_42" data-name="Group 42">
                      <path id="Path_70" data-name="Path 70" d="M238.988,374.3l-3.715-1.171-.624,2.7,3.3,1.041Z" fill="#ffc727"/>
                      <path id="Path_71" data-name="Path 71" d="M232.311,370.825l-1.8-3.455-2.346,1.465,1.6,3.073Z" fill="#ffc727"/>
                      <path id="Path_72" data-name="Path 72" d="M230.05,363.642l1.17-3.715-2.694-.623-1.042,3.3Z" fill="#ffc727"/>
                      <path id="Path_73" data-name="Path 73" d="M233.53,356.965l3.455-1.8-1.465-2.347-3.073,1.6Z" fill="#ffc727"/>
                      <path id="Path_74" data-name="Path 74" d="M240.712,354.7l3.716,1.171.623-2.7-3.3-1.041Z" fill="#ffc727"/>
                      <path id="Path_75" data-name="Path 75" d="M247.39,358.184l1.8,3.455,2.347-1.464-1.6-3.073Z" fill="#ffc727"/>
                      <path id="Path_76" data-name="Path 76" d="M249.651,365.367l-1.171,3.715,2.7.624,1.041-3.3Z" fill="#ffc727"/>
                      <path id="Path_77" data-name="Path 77" d="M246.171,372.044l-3.456,1.8,1.465,2.346,3.073-1.6Z" fill="#ffc727"/>
                    </g>
                  </g>
                </g>
              </g>
            </g>
            <g id="Group_51" data-name="Group 51">
              <g id="Group_50" data-name="Group 50">
                <g id="Group_49" data-name="Group 49">
                  <g id="Group_48" data-name="Group 48">
                    <path id="Path_78" data-name="Path 78" d="M257.835,374.012a3.236,3.236,0,1,0,.944,4.477A3.237,3.237,0,0,0,257.835,374.012Zm.615,4.262a2.841,2.841,0,1,1-.83-3.93A2.84,2.84,0,0,1,258.45,378.274Zm-.615-4.262a3.236,3.236,0,1,0,.944,4.477A3.237,3.237,0,0,0,257.835,374.012Zm.615,4.262a2.841,2.841,0,1,1-.83-3.93A2.84,2.84,0,0,1,258.45,378.274Zm-.615-4.262a3.236,3.236,0,1,0,.944,4.477A3.237,3.237,0,0,0,257.835,374.012Zm.615,4.262a2.841,2.841,0,1,1-.83-3.93A2.84,2.84,0,0,1,258.45,378.274Zm1.342-7.265a6.822,6.822,0,1,0,1.991,9.437A6.824,6.824,0,0,0,259.792,371.009Zm-.59,7.755a3.738,3.738,0,1,1-1.092-5.172A3.742,3.742,0,0,1,259.2,378.764Zm-.423-.274a3.235,3.235,0,1,0-4.475.947A3.236,3.236,0,0,0,258.779,378.49Zm-.329-.216a2.841,2.841,0,1,1-.83-3.93A2.84,2.84,0,0,1,258.45,378.274Zm-.615-4.262a3.236,3.236,0,1,0,.944,4.477A3.237,3.237,0,0,0,257.835,374.012Zm.615,4.262a2.841,2.841,0,1,1-.83-3.93A2.84,2.84,0,0,1,258.45,378.274Zm-.615-4.262a3.236,3.236,0,1,0,.944,4.477A3.237,3.237,0,0,0,257.835,374.012Zm.615,4.262a2.841,2.841,0,1,1-.83-3.93A2.84,2.84,0,0,1,258.45,378.274Z" fill="#dbdbdb"/>
                    <g id="Group_47" data-name="Group 47">
                      <path id="Path_79" data-name="Path 79" d="M253.6,382.918l-2.2-1.431-.891,1.635,1.955,1.273Z" fill="#dbdbdb"/>
                      <path id="Path_80" data-name="Path 80" d="M249.9,379.454l-.542-2.566-1.787.526.483,2.282Z" fill="#dbdbdb"/>
                      <path id="Path_81" data-name="Path 81" d="M249.732,374.387l1.431-2.2-1.635-.891-1.273,1.955Z" fill="#dbdbdb"/>
                      <path id="Path_82" data-name="Path 82" d="M253.2,370.686l2.566-.542-.526-1.786-2.282.482Z" fill="#dbdbdb"/>
                      <path id="Path_83" data-name="Path 83" d="M258.263,370.519l2.2,1.431.892-1.635-1.955-1.273Z" fill="#dbdbdb"/>
                      <path id="Path_84" data-name="Path 84" d="M261.964,373.983l.542,2.566,1.786-.526-.482-2.282Z" fill="#dbdbdb"/>
                      <path id="Path_85" data-name="Path 85" d="M262.131,379.05l-1.431,2.2,1.635.891,1.273-1.955Z" fill="#dbdbdb"/>
                      <path id="Path_86" data-name="Path 86" d="M258.667,382.751l-2.566.542.525,1.786,2.283-.482Z" fill="#dbdbdb"/>
                    </g>
                  </g>
                </g>
              </g>
            </g>
          </g>
          <g id="Group_54" data-name="Group 54">
            <path id="Path_87" data-name="Path 87" d="M305.594,401.414l3.182.592,9.1-61.627-3.625-.666Z" fill="#ffc727"/>
            <g id="Group_53" data-name="Group 53">
              <path id="Path_88" data-name="Path 88" d="M277.721,391.648l4.725-41.177,31.8-10.758s-8.656,62.367-8.656,61.7Z" fill="#ffc727"/>
              <path id="Path_89" data-name="Path 89" d="M277.721,391.648l4.725-41.177,31.8-10.758s-8.656,62.367-8.656,61.7Z" fill="#fff" opacity="0.4"/>
            </g>
          </g>
          <path id="Path_90" data-name="Path 90" d="M200.64,352.139c-.518-3.411-.8-6.85-1.011-10.292-.1-1.722-.142-3.446-.18-5.17s-.064-3.45-.013-5.175l.014-.453.441-.024c6.318-.339,12.632-.754,18.954-1.03,6.32-.312,12.64-.6,18.965-.793-6.3.571-12.613,1.057-18.923,1.515-6.308.493-12.623.847-18.934,1.277l.454-.477-.026,5.15.06,5.152q.014,2.578.09,5.156Z" fill="#fff"/>
          <path id="Path_91" data-name="Path 91" d="M286.882,351.075q2.955-1.4,6-2.609c2.019-.822,4.056-1.6,6.117-2.314s4.135-1.395,6.241-1.98a58.473,58.473,0,0,1,6.392-1.494l.533-.087-.1.509c-.5,2.666-1.021,5.328-1.638,7.975.231-2.708.557-5.4.906-8.091l.438.422c-2.1.5-4.185,1.087-6.263,1.7s-4.146,1.275-6.21,1.947Z" fill="#fff"/>
          <g id="Group_55" data-name="Group 55">
            <path id="Path_92" data-name="Path 92" d="M214.4,328.122l.536,10.3.458,10.3.794,20.608.621,20.614.248,10.309.17,10.312-.537-10.3-.458-10.3-.793-20.608-.619-20.614-.249-10.309Z" opacity="0.1"/>
            <path id="Path_93" data-name="Path 93" d="M211.453,334.33a1.943,1.943,0,0,1-1.329,2.239,1.942,1.942,0,1,1-.764-3.79A1.946,1.946,0,0,1,211.453,334.33Zm0,0a1.608,1.608,0,0,0-.774-1.065,1.59,1.59,0,0,0-1.245-.116,1.571,1.571,0,0,0,.616,3.055,1.561,1.561,0,0,0,1.4-1.874Z" opacity="0.1"/>
            <path id="Path_94" data-name="Path 94" d="M212.162,346.679a1.943,1.943,0,0,1-1.329,2.239,1.942,1.942,0,1,1-.764-3.79A1.946,1.946,0,0,1,212.162,346.679Zm0,0a1.608,1.608,0,0,0-.774-1.065,1.59,1.59,0,0,0-1.245-.116,1.571,1.571,0,0,0,.616,3.055,1.559,1.559,0,0,0,1.4-1.874Z" opacity="0.1"/>
            <path id="Path_95" data-name="Path 95" d="M212.612,359.788a1.943,1.943,0,0,1-1.329,2.239,1.942,1.942,0,1,1-.764-3.79A1.946,1.946,0,0,1,212.612,359.788Zm0,0a1.608,1.608,0,0,0-.774-1.065,1.59,1.59,0,0,0-1.245-.116,1.57,1.57,0,0,0,.616,3.054,1.56,1.56,0,0,0,1.4-1.873Z" opacity="0.1"/>
            <path id="Path_96" data-name="Path 96" d="M213.062,372.9a1.943,1.943,0,0,1-1.329,2.239,1.942,1.942,0,1,1-.764-3.79A1.946,1.946,0,0,1,213.062,372.9Zm0,0a1.557,1.557,0,0,0-2.019-1.181,1.571,1.571,0,0,0,.616,3.055,1.561,1.561,0,0,0,1.4-1.874Z" opacity="0.1"/>
            <path id="Path_97" data-name="Path 97" d="M213.512,386.005a1.943,1.943,0,0,1-1.329,2.239,1.942,1.942,0,1,1-.764-3.79A1.945,1.945,0,0,1,213.512,386.005Zm0,0a1.608,1.608,0,0,0-.774-1.065,1.59,1.59,0,0,0-1.245-.116,1.571,1.571,0,0,0,.616,3.055,1.6,1.6,0,0,0,1.1-.591A1.611,1.611,0,0,0,213.512,386.005Z" opacity="0.1"/>
            <path id="Path_98" data-name="Path 98" d="M213.962,399.113a1.943,1.943,0,0,1-1.329,2.239,1.942,1.942,0,1,1-.764-3.79A1.947,1.947,0,0,1,213.962,399.113Zm0,0a1.608,1.608,0,0,0-.774-1.065,1.59,1.59,0,0,0-1.245-.116,1.571,1.571,0,0,0,.616,3.055,1.561,1.561,0,0,0,1.4-1.874Z" opacity="0.1"/>
          </g>
        </g>
        <g id="Group_59" data-name="Group 59">
          <rect id="Rectangle_21" data-name="Rectangle 21" width="48.981" height="5.723" transform="translate(171.134 433.362) rotate(-16.858)" fill="#ffc727"/>
          <rect id="Rectangle_22" data-name="Rectangle 22" width="48.981" height="5.723" transform="translate(171.134 433.362) rotate(-16.858)" fill="#fff" opacity="0.4"/>
          <rect id="Rectangle_23" data-name="Rectangle 23" width="5.723" height="8.501" transform="translate(190.127 425.829) rotate(-17.643)" fill="#ffc727"/>
          <g id="Group_58" data-name="Group 58">
            <path id="Path_99" data-name="Path 99" d="M172.427,446.863l-12.1-52.379-36.51,8.656L141.8,454.187Z" fill="#ffc727"/>
            <g id="Group_57" data-name="Group 57">
              <path id="Path_100" data-name="Path 100" d="M180.528,444.2l-8.1,2.663-12.1-52.379,11.652,2.774Z" fill="#ffc727"/>
              <path id="Path_101" data-name="Path 101" d="M180.528,444.2l-8.1,2.663-12.1-52.379,11.652,2.774Z" opacity="0.2"/>
            </g>
          </g>
          <circle id="Ellipse_7" data-name="Ellipse 7" cx="6.214" cy="6.214" r="6.214" transform="translate(212.645 415.68)" fill="#ffc727"/>
        </g>
        <g id="Group_62" data-name="Group 62">
          <rect id="Rectangle_24" data-name="Rectangle 24" width="5.723" height="48.981" transform="translate(281.131 424.48) rotate(-73.022)" fill="#ffc727"/>
          <rect id="Rectangle_25" data-name="Rectangle 25" width="5.723" height="48.981" transform="translate(281.131 424.48) rotate(-73.022)" fill="#fff" opacity="0.4"/>
          <rect id="Rectangle_26" data-name="Rectangle 26" width="8.501" height="5.723" transform="matrix(0.305, -0.952, 0.952, 0.305, 302.668, 432.063)" fill="#ffc727"/>
          <g id="Group_61" data-name="Group 61">
            <path id="Path_102" data-name="Path 102" d="M328.357,446.818l12.208-52.354,36.491,8.734L358.97,454.207Z" fill="#ffc727"/>
            <g id="Group_60" data-name="Group 60">
              <path id="Path_103" data-name="Path 103" d="M320.262,444.137l8.1,2.681,12.208-52.354-11.658,2.75Z" fill="#ffc727"/>
              <path id="Path_104" data-name="Path 104" d="M320.262,444.137l8.1,2.681,12.208-52.354-11.658,2.75Z" opacity="0.2"/>
            </g>
          </g>
          <path id="Path_105" data-name="Path 105" d="M275.764,421.737a6.215,6.215,0,1,0,6.228-6.2A6.215,6.215,0,0,0,275.764,421.737Z" fill="#ffc727"/>
        </g>
        <g id="Group_64" data-name="Group 64">
          <g id="Group_63" data-name="Group 63">
            <path id="Path_106" data-name="Path 106" d="M322.663,357.132c.147-.138,15.2-14.1,32.915-9.326,18.112,4.887,33.066,32.167,33.214,32.443l5.034-2.721c-.654-1.211-16.251-29.724-36.759-35.246-20.857-5.625-37.642,10.034-38.347,10.7Z" fill="#ffc727"/>
            <path id="Path_107" data-name="Path 107" d="M322.663,357.132c.147-.138,15.2-14.1,32.915-9.326,18.112,4.887,33.066,32.167,33.214,32.443l5.034-2.721c-.654-1.211-16.251-29.724-36.759-35.246-20.857-5.625-37.642,10.034-38.347,10.7Z" fill="#fff" opacity="0.4"/>
          </g>
          <path id="Path_108" data-name="Path 108" d="M382.118,407.712l10.846-5.726a22.866,22.866,0,0,1-2.509-8.418c-.241-3.964,1.332-5.358,3.067-6.275,3.8-2.007,6.068-1.211,7.617-.3,2.173,1.283,4.383,3.908,6.222,7.392l10.846-5.726c-2.968-5.622-6.613-9.736-10.834-12.228s-11.025-4.5-19.577.015c-6.666,3.519-10.069,9.864-9.582,17.865A35.436,35.436,0,0,0,382.118,407.712Z" fill="#ffc727"/>
        </g>
        <g id="Group_65" data-name="Group 65">
          <path id="Path_109" data-name="Path 109" d="M324.949,338.022c2.351-1.624,4.757-3.154,7.172-4.67s4.858-2.983,7.307-4.441c2.461-1.437,4.923-2.872,7.425-4.241l3.754-2.05c1.27-.652,2.522-1.333,3.808-1.959-1.17.821-2.373,1.586-3.559,2.381l-3.612,2.29c-2.41,1.525-4.858,2.983-7.308,4.439-2.462,1.436-4.924,2.871-7.426,4.239S327.509,336.753,324.949,338.022Z" fill="#263238"/>
          <path id="Path_110" data-name="Path 110" d="M318.72,361.423c3.366,1.918,6.557,4.083,9.7,6.308,3.13,2.25,6.216,4.561,9.124,7.121-3.368-1.916-6.558-4.081-9.7-6.308C324.716,366.293,321.63,363.982,318.72,361.423Z" fill="#263238"/>
          <path id="Path_111" data-name="Path 111" d="M324.249,358.545c2.6.789,5.156,1.681,7.707,2.588s5.084,1.866,7.611,2.836c2.519.992,5.037,1.986,7.527,3.052l3.734,1.6c1.231.568,2.475,1.1,3.7,1.7-1.3-.385-2.582-.831-3.873-1.244l-3.835-1.342c-2.556-.9-5.084-1.866-7.61-2.837-2.518-.993-5.037-1.987-7.526-3.054S326.7,359.719,324.249,358.545Z" fill="#263238"/>
          <path id="Path_112" data-name="Path 112" d="M331.63,340.217c2.49-.647,5-1.186,7.51-1.709s5.033-.99,7.556-1.447c2.527-.433,5.055-.864,7.6-1.219l3.812-.529c1.277-.14,2.548-.314,3.831-.424-1.243.334-2.5.6-3.746.907l-3.764.8c-2.51.533-5.033.99-7.556,1.445-2.528.431-5.055.863-7.6,1.217S334.191,339.977,331.63,340.217Z" fill="#263238"/>
        </g>
      </g>
    </g>
    <g id="Gears">
      <g id="Group_91" data-name="Group 91">
        <g id="Group_67" data-name="Group 67">
          <path id="Path_113" data-name="Path 113" d="M271.622,355.787a26.9,26.9,0,0,1,1.979-5.875,23.782,23.782,0,0,1,3.3-5.28,12.813,12.813,0,0,1,5.025-3.754,8.857,8.857,0,0,1,6.311.062,8.412,8.412,0,0,1,4.505,4.469,10.077,10.077,0,0,1,.846,3.112,6.951,6.951,0,0,1-.37,3.267,3.012,3.012,0,0,1-1.105,1.416,2.169,2.169,0,0,1-.9.338,2.044,2.044,0,0,1-1-.1,2.808,2.808,0,0,1-1.292-1.308,7.585,7.585,0,0,1-.59-1.541,20.37,20.37,0,0,1-.52-6.309,25.935,25.935,0,0,1,3.649-11.961,15.653,15.653,0,0,1,4.336-4.611,13.19,13.19,0,0,1,5.891-2.273,16.7,16.7,0,0,1,3.143-.277,22.064,22.064,0,0,1,3.137.31,19.207,19.207,0,0,1,5.855,2.216,24.383,24.383,0,0,1,4.9,3.843,25.972,25.972,0,0,1,3.858,4.852,26.981,26.981,0,0,0-9-8.267,18.778,18.778,0,0,0-5.727-2.022,9.408,9.408,0,0,0-1.508-.169,9.239,9.239,0,0,0-1.514-.062,15.919,15.919,0,0,0-3.01.334,13.013,13.013,0,0,0-5.532,2.225,14.8,14.8,0,0,0-4.06,4.385,25.035,25.035,0,0,0-3.422,11.537,19.457,19.457,0,0,0,.442,5.995c.241.916.674,1.948,1.3,2.237a2.185,2.185,0,0,0,.233.054,1.81,1.81,0,0,0,.3-.01,1.234,1.234,0,0,0,.534-.2,2.117,2.117,0,0,0,.763-.992,6.09,6.09,0,0,0,.327-2.829,9.219,9.219,0,0,0-.752-2.847,7.818,7.818,0,0,0-4.012-4.115,8.163,8.163,0,0,0-5.8-.177,12.361,12.361,0,0,0-4.873,3.484A26.916,26.916,0,0,0,271.622,355.787Z" fill="#263238" stroke="#707070" stroke-width="1"/>
        </g>
        <g id="Group_68" data-name="Group 68">
          <path id="Path_114" data-name="Path 114" d="M179.217,381.7a14.188,14.188,0,0,1,4.041-4.637,15.039,15.039,0,0,1,5.6-2.682,12.013,12.013,0,0,1,6.254.123,12.47,12.47,0,0,1,5.338,3.324,15.776,15.776,0,0,1,3.342,5.329,14.593,14.593,0,0,1,1.034,6.229,5.16,5.16,0,0,1-1.161,3.122,2.421,2.421,0,0,1-1.685.759,3.606,3.606,0,0,1-1.723-.39,2.834,2.834,0,0,1-1.24-1.319,4.407,4.407,0,0,1-.376-1.68,9.237,9.237,0,0,1,.531-3.2,18.517,18.517,0,0,1,3.061-5.508,22.234,22.234,0,0,1,4.527-4.351,16.891,16.891,0,0,1,11.914-3.276,15.858,15.858,0,0,1,10.682,6.015,21.9,21.9,0,0,1,3.084,5.38,24.9,24.9,0,0,1,1.634,5.948,24.936,24.936,0,0,0-5.113-11.005,15.67,15.67,0,0,0-4.645-3.823,15.373,15.373,0,0,0-5.732-1.718,16.24,16.24,0,0,0-11.285,3.228A20.5,20.5,0,0,0,200.106,387a8.294,8.294,0,0,0-.5,2.849,2.419,2.419,0,0,0,1.1,2.207,2.707,2.707,0,0,0,1.25.289,1.49,1.49,0,0,0,1.054-.471,4.336,4.336,0,0,0,.923-2.561,13.753,13.753,0,0,0-.946-5.842,15.512,15.512,0,0,0-3.12-5.079,11.88,11.88,0,0,0-4.959-3.216,11.391,11.391,0,0,0-5.928-.264A15.376,15.376,0,0,0,179.217,381.7Z" fill="#263238" stroke="#707070" stroke-width="1"/>
        </g>
        <g id="Group_69" data-name="Group 69">
          <path id="Path_115" data-name="Path 115" d="M132.953,140.208a26.952,26.952,0,0,0-2.9-11.868,12.354,12.354,0,0,0-3.9-4.547,8.163,8.163,0,0,0-5.676-1.213,7.824,7.824,0,0,0-4.878,3.038,9.211,9.211,0,0,0-1.41,2.585,6.079,6.079,0,0,0-.358,2.825,2.11,2.11,0,0,0,.5,1.145,1.244,1.244,0,0,0,.472.318,1.871,1.871,0,0,0,.285.08c.1.02.158-.009.239,0,.681-.13,1.349-1.029,1.8-1.861A19.432,19.432,0,0,0,118.99,125a25.041,25.041,0,0,0-.57-12.02,14.763,14.763,0,0,0-2.9-5.227,13.018,13.018,0,0,0-4.841-3.481,16.051,16.051,0,0,0-2.843-1.043,9.44,9.44,0,0,0-1.485-.3,9.554,9.554,0,0,0-1.5-.2,18.766,18.766,0,0,0-6.044.6,26.983,26.983,0,0,0-10.713,5.88,26.008,26.008,0,0,1,4.9-3.791,24.423,24.423,0,0,1,5.677-2.562,19.182,19.182,0,0,1,6.214-.755,22.23,22.23,0,0,1,3.12.447,16.769,16.769,0,0,1,2.986,1.019,13.184,13.184,0,0,1,5.178,3.613,15.653,15.653,0,0,1,3.11,5.512,25.929,25.929,0,0,1,.688,12.486,20.376,20.376,0,0,1-2.01,6,7.648,7.648,0,0,1-.941,1.356,2.807,2.807,0,0,1-1.566.962,2.053,2.053,0,0,1-.99-.146,2.17,2.17,0,0,1-.8-.544,3.011,3.011,0,0,1-.735-1.638,6.942,6.942,0,0,1,.42-3.261,10.05,10.05,0,0,1,1.564-2.82,8.412,8.412,0,0,1,5.441-3.264,8.853,8.853,0,0,1,6.144,1.447,12.822,12.822,0,0,1,3.984,4.845,23.808,23.808,0,0,1,1.949,5.916A26.886,26.886,0,0,1,132.953,140.208Z" fill="#263238" stroke="#707070" stroke-width="1"/>
        </g>
        <g id="Group_70" data-name="Group 70">
          <path id="Path_116" data-name="Path 116" d="M353.77,192.371a26.956,26.956,0,0,0-12.218.052,12.376,12.376,0,0,0-5.332,2.732,8.163,8.163,0,0,0-2.5,5.237,7.821,7.821,0,0,0,1.816,5.452,9.2,9.2,0,0,0,2.184,1.974,6.087,6.087,0,0,0,2.664,1.008,2.118,2.118,0,0,0,1.231-.223,1.243,1.243,0,0,0,.419-.384,1.846,1.846,0,0,0,.145-.258c.042-.088.028-.156.059-.231.033-.693-.686-1.552-1.389-2.185a19.464,19.464,0,0,0-5.124-3.142,25.051,25.051,0,0,0-11.822-2.251,14.79,14.79,0,0,0-5.759,1.6,13.01,13.01,0,0,0-4.514,3.9,16,16,0,0,0-1.677,2.521,21.473,21.473,0,0,0-1.18,2.791,18.768,18.768,0,0,0-.83,6.016,26.992,26.992,0,0,0,3.218,11.79,25.982,25.982,0,0,1-2.542-5.653,24.412,24.412,0,0,1-1.166-6.119,19.2,19.2,0,0,1,.716-6.219,22.139,22.139,0,0,1,1.163-2.93,16.78,16.78,0,0,1,1.688-2.666,13.193,13.193,0,0,1,4.721-4.192,15.652,15.652,0,0,1,6.086-1.738,25.94,25.94,0,0,1,12.3,2.244,20.34,20.34,0,0,1,5.368,3.356,7.578,7.578,0,0,1,1.1,1.232,2.805,2.805,0,0,1,.57,1.747,2.051,2.051,0,0,1-.373.929,2.174,2.174,0,0,1-.715.648,3.009,3.009,0,0,1-1.765.332,6.954,6.954,0,0,1-3.073-1.169,10.09,10.09,0,0,1-2.378-2.179,8.415,8.415,0,0,1-1.9-6.052,8.863,8.863,0,0,1,2.84-5.637,12.813,12.813,0,0,1,5.641-2.743,23.809,23.809,0,0,1,6.208-.515A26.787,26.787,0,0,1,353.77,192.371Z" fill="#263238" stroke="#707070" stroke-width="1"/>
        </g>
        <g id="Group_71" data-name="Group 71">
          <path id="Path_117" data-name="Path 117" d="M291.86,127.671a17.052,17.052,0,0,1-.391-7.35,18.038,18.038,0,0,1,2.566-6.962,14.321,14.321,0,0,1,5.446-5.1,14.885,14.885,0,0,1,7.321-1.6,18.891,18.891,0,0,1,7.292,1.764,17.392,17.392,0,0,1,6.068,4.449,6.106,6.106,0,0,1,1.6,3.59,2.806,2.806,0,0,1-.783,2,4.246,4.246,0,0,1-1.762,1.084,3.3,3.3,0,0,1-2.108-.091,5.171,5.171,0,0,1-1.7-1.105,10.96,10.96,0,0,1-2.2-3.156,22.162,22.162,0,0,1-1.982-7.25,26.566,26.566,0,0,1,.229-7.491,20.169,20.169,0,0,1,7.421-12.735,18.933,18.933,0,0,1,14.132-3.8,26.215,26.215,0,0,1,7.142,2,30.046,30.046,0,0,1,6.39,3.7,29.815,29.815,0,0,0-13.588-5.2,18.824,18.824,0,0,0-7.2.6,18.781,18.781,0,0,0-11.029,8.788,21.189,21.189,0,0,0-2.356,6.8,24.622,24.622,0,0,0,1.729,14.152,10.014,10.014,0,0,0,1.976,2.889,2.992,2.992,0,0,0,2.88.991,3.324,3.324,0,0,0,1.354-.825,1.867,1.867,0,0,0,.532-1.35,5.273,5.273,0,0,0-1.376-3.022,16.547,16.547,0,0,0-5.734-4.233,18.625,18.625,0,0,0-6.957-1.741,14.289,14.289,0,0,0-6.975,1.416,13.709,13.709,0,0,0-5.312,4.769A18.4,18.4,0,0,0,291.86,127.671Z" fill="#263238" stroke="#707070" stroke-width="1"/>
        </g>
        <g id="Group_76" data-name="Group 76">
          <g id="Group_75" data-name="Group 75">
            <g id="Group_74" data-name="Group 74">
              <g id="Group_73" data-name="Group 73">
                <path id="Path_118" data-name="Path 118" d="M175.874,381.922a4.252,4.252,0,1,0,2.775,5.334A4.252,4.252,0,0,0,175.874,381.922Zm2.282,5.177a3.732,3.732,0,1,1-2.436-4.681A3.732,3.732,0,0,1,178.156,387.1Zm-2.282-5.177a4.252,4.252,0,1,0,2.775,5.334A4.252,4.252,0,0,0,175.874,381.922Zm2.282,5.177a3.732,3.732,0,1,1-2.436-4.681A3.732,3.732,0,0,1,178.156,387.1Zm-2.282-5.177a4.252,4.252,0,1,0,2.775,5.334A4.252,4.252,0,0,0,175.874,381.922Zm2.282,5.177a3.732,3.732,0,1,1-2.436-4.681A3.732,3.732,0,0,1,178.156,387.1Zm-.865-9.67a8.963,8.963,0,1,0,5.851,11.241A8.966,8.966,0,0,0,177.291,377.429Zm1.99,10.024a4.912,4.912,0,1,1-3.207-6.16A4.918,4.918,0,0,1,179.281,387.453Zm-.632-.2a4.251,4.251,0,1,0-5.33,2.778A4.252,4.252,0,0,0,178.649,387.255Zm-.493-.156a3.732,3.732,0,1,1-2.436-4.681A3.732,3.732,0,0,1,178.156,387.1Zm-2.282-5.177a4.252,4.252,0,1,0,2.775,5.334A4.252,4.252,0,0,0,175.874,381.922Zm2.282,5.177a3.732,3.732,0,1,1-2.436-4.681A3.732,3.732,0,0,1,178.156,387.1Zm-2.282-5.177a4.252,4.252,0,1,0,2.775,5.334A4.252,4.252,0,0,0,175.874,381.922Zm2.282,5.177a3.732,3.732,0,1,1-2.436-4.681A3.732,3.732,0,0,1,178.156,387.1Z" fill="#455a64" stroke="#707070" stroke-width="1"/>
                <g id="Group_72" data-name="Group 72">
                  <path id="Path_119" data-name="Path 119" d="M173.657,394.688l-3.287-1.035-.551,2.384,2.923.921Z" fill="#455a64" stroke="#707070" stroke-width="1"/>
                  <path id="Path_120" data-name="Path 120" d="M167.75,391.61l-1.592-3.057-2.075,1.3,1.415,2.719Z" fill="#455a64" stroke="#707070" stroke-width="1"/>
                  <path id="Path_121" data-name="Path 121" d="M165.75,385.256l1.036-3.287-2.384-.551-.921,2.923Z" fill="#455a64" stroke="#707070" stroke-width="1"/>
                  <path id="Path_122" data-name="Path 122" d="M168.829,379.349l3.056-1.592-1.3-2.076-2.718,1.416Z" fill="#455a64" stroke="#707070" stroke-width="1"/>
                  <path id="Path_123" data-name="Path 123" d="M175.182,377.349l3.287,1.035.552-2.383-2.924-.921Z" fill="#455a64" stroke="#707070" stroke-width="1"/>
                  <path id="Path_124" data-name="Path 124" d="M181.089,380.427l1.592,3.057,2.076-1.3-1.416-2.718Z" fill="#455a64" stroke="#707070" stroke-width="1"/>
                  <path id="Path_125" data-name="Path 125" d="M183.09,386.781l-1.036,3.287,2.384.552.921-2.924Z" fill="#455a64" stroke="#707070" stroke-width="1"/>
                  <path id="Path_126" data-name="Path 126" d="M180.011,392.688l-3.057,1.592,1.3,2.076,2.719-1.416Z" fill="#455a64" stroke="#707070" stroke-width="1"/>
                </g>
              </g>
            </g>
          </g>
        </g>
        <g id="Group_78" data-name="Group 78">
          <g id="Group_77" data-name="Group 77">
            <path id="Path_127" data-name="Path 127" d="M341.674,353.349a13.7,13.7,0,1,0-19.163,2.838A13.7,13.7,0,0,0,341.674,353.349ZM335.811,349a6.4,6.4,0,1,1-1.324-8.948A6.4,6.4,0,0,1,335.811,349Z" fill="#263238" stroke="#707070" stroke-width="1"/>
            <path id="Path_128" data-name="Path 128" d="M324.963,357.3l-4.23-3.139-1.988,3.168,3.762,2.792Z" fill="#263238" stroke="#707070" stroke-width="1"/>
            <path id="Path_129" data-name="Path 129" d="M317.97,349.9l-.772-5.211-3.646.834.686,4.635Z" fill="#263238" stroke="#707070" stroke-width="1"/>
            <path id="Path_130" data-name="Path 130" d="M318.257,339.721l3.14-4.23-3.168-1.988-2.792,3.762Z" fill="#263238" stroke="#707070" stroke-width="1"/>
            <path id="Path_131" data-name="Path 131" d="M325.658,332.728l5.211-.772-.834-3.646L325.4,329Z" fill="#263238" stroke="#707070" stroke-width="1"/>
            <path id="Path_132" data-name="Path 132" d="M335.836,333.015l4.23,3.14,1.988-3.168-3.762-2.792Z" fill="#263238" stroke="#707070" stroke-width="1"/>
            <path id="Path_133" data-name="Path 133" d="M342.829,340.416l.771,5.211,3.646-.834-.686-4.635Z" fill="#263238" stroke="#707070" stroke-width="1"/>
            <path id="Path_134" data-name="Path 134" d="M342.542,350.594l-3.14,4.23,3.168,1.988,2.792-3.762Z" fill="#263238" stroke="#707070" stroke-width="1"/>
            <path id="Path_135" data-name="Path 135" d="M335.141,357.587l-5.211.771.834,3.646,4.635-.685Z" fill="#263238" stroke="#707070" stroke-width="1"/>
          </g>
          <path id="Path_136" data-name="Path 136" d="M325.767,345.843l2.91,3.67,4.634-.688,1.72-4.353-2.907-3.668-4.634.684Zm5.516-1.878a1.485,1.485,0,1,1-2.077.307A1.482,1.482,0,0,1,331.283,343.965Z" fill="#263238" stroke="#707070" stroke-width="1"/>
        </g>
        <g id="Group_83" data-name="Group 83">
          <g id="Group_82" data-name="Group 82">
            <g id="Group_81" data-name="Group 81">
              <g id="Group_80" data-name="Group 80">
                <path id="Path_137" data-name="Path 137" d="M351.943,86.6a3.721,3.721,0,1,0,2.428,4.667A3.722,3.722,0,0,0,351.943,86.6Zm2,4.53a3.267,3.267,0,1,1-2.133-4.1A3.267,3.267,0,0,1,353.94,91.131Zm-2-4.53a3.721,3.721,0,1,0,2.428,4.667A3.722,3.722,0,0,0,351.943,86.6Zm2,4.53a3.267,3.267,0,1,1-2.133-4.1A3.267,3.267,0,0,1,353.94,91.131Zm-2-4.53a3.721,3.721,0,1,0,2.428,4.667A3.722,3.722,0,0,0,351.943,86.6Zm2,4.53a3.267,3.267,0,1,1-2.133-4.1A3.267,3.267,0,0,1,353.94,91.131Zm-.756-8.461a7.843,7.843,0,1,0,5.12,9.836A7.846,7.846,0,0,0,353.184,82.67Zm1.741,8.771a4.3,4.3,0,1,1-2.807-5.391A4.3,4.3,0,0,1,354.925,91.441Zm-.553-.173a3.72,3.72,0,1,0-4.664,2.431A3.72,3.72,0,0,0,354.372,91.268Zm-.432-.137a3.267,3.267,0,1,1-2.133-4.1A3.267,3.267,0,0,1,353.94,91.131Zm-2-4.53a3.721,3.721,0,1,0,2.428,4.667A3.722,3.722,0,0,0,351.943,86.6Zm2,4.53a3.267,3.267,0,1,1-2.133-4.1A3.267,3.267,0,0,1,353.94,91.131Zm-2-4.53a3.721,3.721,0,1,0,2.428,4.667A3.722,3.722,0,0,0,351.943,86.6Zm2,4.53a3.267,3.267,0,1,1-2.133-4.1A3.267,3.267,0,0,1,353.94,91.131Z" fill="#263238" stroke="#707070" stroke-width="1"/>
                <g id="Group_79" data-name="Group 79">
                  <path id="Path_138" data-name="Path 138" d="M350,97.772l-2.876-.906-.482,2.086,2.558.806Z" fill="#263238" stroke="#707070" stroke-width="1"/>
                  <path id="Path_139" data-name="Path 139" d="M344.834,95.078,343.441,92.4l-1.816,1.133,1.239,2.379Z" fill="#263238" stroke="#707070" stroke-width="1"/>
                  <path id="Path_140" data-name="Path 140" d="M343.084,89.518l.907-2.876L341.9,86.16l-.806,2.558Z" fill="#263238" stroke="#707070" stroke-width="1"/>
                  <path id="Path_141" data-name="Path 141" d="M345.778,84.349l2.675-1.393-1.134-1.816-2.379,1.239Z" fill="#263238" stroke="#707070" stroke-width="1"/>
                  <path id="Path_142" data-name="Path 142" d="M351.338,82.6l2.876.906.483-2.086-2.558-.806Z" fill="#263238" stroke="#707070" stroke-width="1"/>
                  <path id="Path_143" data-name="Path 143" d="M356.507,85.293l1.393,2.675,1.816-1.134-1.239-2.379Z" fill="#263238" stroke="#707070" stroke-width="1"/>
                  <path id="Path_144" data-name="Path 144" d="M358.257,90.853l-.906,2.876,2.086.483.806-2.558Z" fill="#263238" stroke="#707070" stroke-width="1"/>
                  <path id="Path_145" data-name="Path 145" d="M355.563,96.022l-2.674,1.393,1.133,1.816,2.379-1.239Z" fill="#263238" stroke="#707070" stroke-width="1"/>
                </g>
              </g>
            </g>
          </g>
        </g>
        <g id="Group_88" data-name="Group 88">
          <g id="Group_87" data-name="Group 87">
            <g id="Group_86" data-name="Group 86">
              <g id="Group_85" data-name="Group 85">
                <path id="Path_146" data-name="Path 146" d="M313.728,229.466a3.721,3.721,0,1,0,2.428,4.667A3.722,3.722,0,0,0,313.728,229.466Zm2,4.53a3.266,3.266,0,1,1-2.132-4.1A3.266,3.266,0,0,1,315.724,234Zm-2-4.53a3.721,3.721,0,1,0,2.428,4.667A3.722,3.722,0,0,0,313.728,229.466Zm2,4.53a3.266,3.266,0,1,1-2.132-4.1A3.266,3.266,0,0,1,315.724,234Zm-2-4.53a3.721,3.721,0,1,0,2.428,4.667A3.722,3.722,0,0,0,313.728,229.466Zm2,4.53a3.266,3.266,0,1,1-2.132-4.1A3.266,3.266,0,0,1,315.724,234Zm-.756-8.461a7.843,7.843,0,1,0,5.12,9.836A7.846,7.846,0,0,0,314.968,225.535Zm1.741,8.771a4.3,4.3,0,1,1-2.807-5.391A4.3,4.3,0,0,1,316.709,234.306Zm-.553-.173a3.72,3.72,0,1,0-4.664,2.431A3.72,3.72,0,0,0,316.156,234.133Zm-.432-.137a3.266,3.266,0,1,1-2.132-4.1A3.266,3.266,0,0,1,315.724,234Zm-2-4.53a3.721,3.721,0,1,0,2.428,4.667A3.722,3.722,0,0,0,313.728,229.466Zm2,4.53a3.266,3.266,0,1,1-2.132-4.1A3.266,3.266,0,0,1,315.724,234Zm-2-4.53a3.721,3.721,0,1,0,2.428,4.667A3.722,3.722,0,0,0,313.728,229.466Zm2,4.53a3.266,3.266,0,1,1-2.132-4.1A3.266,3.266,0,0,1,315.724,234Z" fill="#263238" stroke="#707070" stroke-width="1"/>
                <g id="Group_84" data-name="Group 84">
                  <path id="Path_147" data-name="Path 147" d="M311.787,240.637l-2.876-.906-.482,2.086,2.558.806Z" fill="#263238" stroke="#707070" stroke-width="1"/>
                  <path id="Path_148" data-name="Path 148" d="M306.618,237.943l-1.392-2.674-1.817,1.133,1.239,2.379Z" fill="#263238" stroke="#707070" stroke-width="1"/>
                  <path id="Path_149" data-name="Path 149" d="M304.868,232.383l.907-2.876-2.086-.482-.806,2.558Z" fill="#263238" stroke="#707070" stroke-width="1"/>
                  <path id="Path_150" data-name="Path 150" d="M307.562,227.214l2.675-1.392-1.134-1.817-2.379,1.239Z" fill="#263238" stroke="#707070" stroke-width="1"/>
                  <path id="Path_151" data-name="Path 151" d="M313.122,225.464l2.876.907.483-2.086-2.558-.806Z" fill="#263238" stroke="#707070" stroke-width="1"/>
                  <path id="Path_152" data-name="Path 152" d="M318.291,228.158l1.393,2.675L321.5,229.7l-1.239-2.379Z" fill="#263238" stroke="#707070" stroke-width="1"/>
                  <path id="Path_153" data-name="Path 153" d="M320.041,233.718l-.906,2.876,2.086.483.806-2.558Z" fill="#263238" stroke="#707070" stroke-width="1"/>
                  <path id="Path_154" data-name="Path 154" d="M317.347,238.887l-2.674,1.393,1.133,1.816,2.379-1.239Z" fill="#263238" stroke="#707070" stroke-width="1"/>
                </g>
              </g>
            </g>
          </g>
        </g>
        <g id="Group_90" data-name="Group 90">
          <g id="Group_89" data-name="Group 89">
            <path id="Path_155" data-name="Path 155" d="M95.021,116.993a11.8,11.8,0,1,0-14.252,8.67A11.8,11.8,0,0,0,95.021,116.993ZM88.913,115.5a5.509,5.509,0,1,1-4.047-6.654A5.506,5.506,0,0,1,88.913,115.5Z" fill="#263238" stroke="#707070" stroke-width="1"/>
            <path id="Path_156" data-name="Path 156" d="M83.088,125.723l-4.407-1.074-.516,3.179,3.919.955Z" fill="#263238" stroke="#707070" stroke-width="1"/>
            <path id="Path_157" data-name="Path 157" d="M75.062,122.195l-2.357-3.876L70.092,120.2l2.1,3.447Z" fill="#263238" stroke="#707070" stroke-width="1"/>
            <path id="Path_158" data-name="Path 158" d="M71.881,114.024l1.074-4.406-3.179-.517-.955,3.92Z" fill="#263238" stroke="#707070" stroke-width="1"/>
            <path id="Path_159" data-name="Path 159" d="M75.41,106l3.875-2.357L77.4,101.028l-3.447,2.1Z" fill="#263238" stroke="#707070" stroke-width="1"/>
            <path id="Path_160" data-name="Path 160" d="M83.58,102.818l4.407,1.074.517-3.179-3.92-.955Z" fill="#263238" stroke="#707070" stroke-width="1"/>
            <path id="Path_161" data-name="Path 161" d="M91.606,106.346l2.357,3.876,2.613-1.883-2.1-3.447Z" fill="#263238" stroke="#707070" stroke-width="1"/>
            <path id="Path_162" data-name="Path 162" d="M94.787,114.517l-1.074,4.407,3.179.516.955-3.92Z" fill="#263238" stroke="#707070" stroke-width="1"/>
            <path id="Path_163" data-name="Path 163" d="M91.258,122.543,87.383,124.9l1.883,2.613,3.447-2.1Z" fill="#263238" stroke="#707070" stroke-width="1"/>
          </g>
          <path id="Path_164" data-name="Path 164" d="M79.889,116.366l3.537,1.937,3.445-2.1-.093-4.029-3.535-1.936L79.8,112.334Zm3.747-3.337a1.278,1.278,0,1,1-1.545.939A1.275,1.275,0,0,1,83.636,113.029Z" fill="#263238" stroke="#707070" stroke-width="1"/>
        </g>
      </g>
    </g>
    <g id="Speech_Bubble">
      <g id="Group_94" data-name="Group 94">
        <g id="Group_92" data-name="Group 92">
          <path id="Path_165" data-name="Path 165" d="M361.59,238.938a24.57,24.57,0,0,1-4.2-13.573c0-17.2,18.883-31.138,42.162-31.138s42.145,13.943,42.145,31.138c0,6.706,2.595,10.412-7.942,18.2s-20,12.941-34.2,12.941c-11.288,0-21.521-3.27-29.081-8.615l-14.523,3.693Z" fill="#fff"/>
          <path id="Path_166" data-name="Path 166" d="M361.59,238.938a24.847,24.847,0,0,1-4.3-12.833,24.6,24.6,0,0,1,3.353-13.169,33.178,33.178,0,0,1,9.273-10.06,44.1,44.1,0,0,1,12.228-6.221,56.778,56.778,0,0,1,13.467-2.693,58.216,58.216,0,0,1,13.726.7c1.125.231,2.267.385,3.378.68l3.33.9,3.253,1.149c1.082.39,2.11.917,3.168,1.369a40.716,40.716,0,0,1,11.319,7.83,28.811,28.811,0,0,1,7.289,11.679,23.58,23.58,0,0,1,.138,13.757,28.575,28.575,0,0,1-7.107,11.787,40.4,40.4,0,0,1-11.222,7.964,49.37,49.37,0,0,1-13.093,4.2,57.345,57.345,0,0,1-13.712.785,53.858,53.858,0,0,1-13.48-2.563,45.163,45.163,0,0,1-12.264-6.113l.188.035-14.552,3.578-.22.054.093-.205Zm0,0-5.544,12.686-.127-.151,14.494-3.807.1-.026.088.061a49.679,49.679,0,0,0,25.524,8.332,56.594,56.594,0,0,0,13.518-.894,48.672,48.672,0,0,0,12.858-4.162,39.476,39.476,0,0,0,10.946-7.813,27.658,27.658,0,0,0,6.844-11.412,22.68,22.68,0,0,0-.165-13.2,27.845,27.845,0,0,0-7.014-11.3,39.784,39.784,0,0,0-11.034-7.677c-1.036-.446-2.042-.967-3.1-1.352l-3.191-1.138-3.271-.89c-1.091-.294-2.215-.447-3.321-.678a58.506,58.506,0,0,0-13.519-.74,55.986,55.986,0,0,0-13.3,2.538,43.456,43.456,0,0,0-12.109,6.026,33.388,33.388,0,0,0-9.243,9.806,24.267,24.267,0,0,0-3.509,12.945A24.708,24.708,0,0,0,361.59,238.938Z" fill="#263238"/>
        </g>
        <g id="Group_93" data-name="Group 93">
          <path id="Path_167" data-name="Path 167" d="M377.861,230.463v2.315h-9.435V219.19h9.263v2.316h-6.621v3.272h5.722v2.144h-5.722v3.54h6.793Z" fill="#263238"/>
          <path id="Path_168" data-name="Path 168" d="M379.929,232.779V219.191h6.01a3.846,3.846,0,0,1,1.731.393,4.5,4.5,0,0,1,1.368,1.033,4.864,4.864,0,0,1,.9,1.455,4.372,4.372,0,0,1,.325,1.636,4.522,4.522,0,0,1-.66,2.4,3.775,3.775,0,0,1-1.789,1.559l3.1,5.11h-2.967l-2.774-4.555h-2.6v4.555h-2.641Zm2.641-6.871h3.311a1.393,1.393,0,0,0,.679-.172,1.744,1.744,0,0,0,.546-.469,2.319,2.319,0,0,0,.363-.7,2.687,2.687,0,0,0,.135-.861,2.475,2.475,0,0,0-.153-.88,2.3,2.3,0,0,0-.412-.7,1.867,1.867,0,0,0-.593-.46,1.551,1.551,0,0,0-.68-.163h-3.2v4.4Z" fill="#263238"/>
          <path id="Path_169" data-name="Path 169" d="M392.654,232.779V219.191h6.01a3.846,3.846,0,0,1,1.731.393,4.5,4.5,0,0,1,1.368,1.033,4.864,4.864,0,0,1,.9,1.455,4.372,4.372,0,0,1,.325,1.636,4.522,4.522,0,0,1-.66,2.4,3.775,3.775,0,0,1-1.789,1.559l3.1,5.11h-2.967l-2.775-4.555h-2.6v4.555h-2.64Zm2.642-6.871h3.31a1.393,1.393,0,0,0,.679-.172,1.744,1.744,0,0,0,.546-.469,2.319,2.319,0,0,0,.363-.7,2.687,2.687,0,0,0,.135-.861,2.475,2.475,0,0,0-.153-.88,2.3,2.3,0,0,0-.412-.7,1.867,1.867,0,0,0-.593-.46,1.551,1.551,0,0,0-.68-.163h-3.2Z" fill="#263238"/>
          <path id="Path_170" data-name="Path 170" d="M411.18,232.874a6.179,6.179,0,0,1-2.708-.583,6.638,6.638,0,0,1-2.086-1.55,7.171,7.171,0,0,1-1.827-4.755,6.835,6.835,0,0,1,.507-2.6,7.207,7.207,0,0,1,1.4-2.2,6.672,6.672,0,0,1,2.115-1.521,6.28,6.28,0,0,1,2.66-.565,5.97,5.97,0,0,1,2.689.6A6.689,6.689,0,0,1,416,221.278a7.269,7.269,0,0,1,1.34,2.22,6.985,6.985,0,0,1,.478,2.526,6.883,6.883,0,0,1-.5,2.593,7.068,7.068,0,0,1-1.378,2.182,6.619,6.619,0,0,1-2.105,1.512A6.3,6.3,0,0,1,411.18,232.874Zm-3.943-6.889a5.451,5.451,0,0,0,.268,1.7,4.574,4.574,0,0,0,.775,1.455,3.852,3.852,0,0,0,1.244,1.014,3.58,3.58,0,0,0,1.675.383,3.54,3.54,0,0,0,1.693-.392,3.859,3.859,0,0,0,1.244-1.043,4.673,4.673,0,0,0,.766-1.464,5.442,5.442,0,0,0,.258-1.655,5.325,5.325,0,0,0-.277-1.7,4.707,4.707,0,0,0-.784-1.455,3.745,3.745,0,0,0-1.244-1,3.868,3.868,0,0,0-3.358.019,3.774,3.774,0,0,0-1.244,1.033,4.642,4.642,0,0,0-.756,1.455A5.374,5.374,0,0,0,407.237,225.985Z" fill="#263238"/>
          <path id="Path_171" data-name="Path 171" d="M419.849,232.779V219.191h6.01a3.846,3.846,0,0,1,1.731.393,4.5,4.5,0,0,1,1.368,1.033,4.864,4.864,0,0,1,.9,1.455,4.372,4.372,0,0,1,.325,1.636,4.522,4.522,0,0,1-.66,2.4,3.775,3.775,0,0,1-1.789,1.559l3.1,5.11h-2.967l-2.774-4.555h-2.6v4.555h-2.641Zm2.641-6.871H425.8a1.393,1.393,0,0,0,.679-.172,1.733,1.733,0,0,0,.546-.469,2.319,2.319,0,0,0,.363-.7,2.687,2.687,0,0,0,.135-.861,2.475,2.475,0,0,0-.153-.88,2.3,2.3,0,0,0-.412-.7,1.867,1.867,0,0,0-.593-.46,1.551,1.551,0,0,0-.68-.163h-3.2v4.4Z" fill="#263238"/>
        </g>
      </g>
    </g>
  </g>
</svg>
