<svg xmlns="http://www.w3.org/2000/svg" width="139" height="155.213" viewBox="0 0 139 155.213">
  <g id="Group_174492" data-name="Group 174492" transform="translate(-147 -339.787)">
    <ellipse id="Ellipse_1151" data-name="Ellipse 1151" cx="69.5" cy="3" rx="69.5" ry="3" transform="translate(147 489)" fill="#efefef" opacity="0.3"/>
    <g id="noun-notification-5697508" transform="translate(157 339.787)">
      <path id="Path_53274" data-name="Path 53274" d="M175.5,17.5c-29.361,0-54.03,22.209-57.653,51.67L114,100.439c-2.34,19.023,12.26,35.978,31.331,35.978h2.716a29.741,29.741,0,0,0,54.9,0h2.716c19.072,0,33.673-16.956,31.331-35.978L233.147,69.17c-3.623-29.46-28.292-51.67-57.653-51.67Zm17.116,118.918H158.38a20.586,20.586,0,0,0,34.231,0ZM126.923,70.286C130,45.3,150.869,26.647,175.5,26.647S221,45.3,224.069,70.286l3.846,31.269c1.69,13.735-8.842,25.714-22.253,25.714H145.33c-13.412,0-23.943-11.98-22.253-25.714Z" transform="translate(-113.751 -17.5)" fill="#656e72" fill-rule="evenodd"/>
    </g>
  </g>
</svg>
