<svg id="noun-notification-5697508" xmlns="http://www.w3.org/2000/svg" width="22.691" height="25.213" viewBox="0 0 22.691 25.213">
  <path id="Path_53274" data-name="Path 53274" d="M125.1,17.5A10.733,10.733,0,0,0,114.5,26.995L113.8,32.74a5.855,5.855,0,0,0,5.757,6.611h.5a5.465,5.465,0,0,0,10.088,0h.5A5.854,5.854,0,0,0,136.4,32.74l-.707-5.746A10.733,10.733,0,0,0,125.1,17.5Zm3.145,21.851h-6.29a3.783,3.783,0,0,0,6.29,0ZM116.171,27.2a8.977,8.977,0,0,1,17.851,0l.707,5.746a4.174,4.174,0,0,1-4.089,4.725H119.554a4.174,4.174,0,0,1-4.089-4.725Z" transform="translate(-113.751 -17.5)" fill="#222f35" fill-rule="evenodd"/>
</svg>
