<svg id="call_linear" data-name="call/linear" xmlns="http://www.w3.org/2000/svg" width="18.692" height="18.692" viewBox="0 0 18.692 18.692">
  <g id="vuesax_linear_call" data-name="vuesax/linear/call">
    <g id="call">
      <g id="call-2" data-name="call" transform="translate(1.581 1.558)">
        <path id="Vector" d="M0,12.719a1.982,1.982,0,0,0,.195.849,3.214,3.214,0,0,0,.53.794A3.511,3.511,0,0,0,2,15.281a3.911,3.911,0,0,0,1.519.3,6.491,6.491,0,0,0,2.539-.569,13.68,13.68,0,0,0,2.679-1.542,22.392,22.392,0,0,0,2.555-2.181,22.13,22.13,0,0,0,2.173-2.547,13.885,13.885,0,0,0,1.527-2.656,6.56,6.56,0,0,0,.561-2.547,4.029,4.029,0,0,0-.28-1.5,3.585,3.585,0,0,0-.9-1.3A2.282,2.282,0,0,0,12.758,0a1.464,1.464,0,0,0-.631.14A1.27,1.27,0,0,0,11.6.576L9.8,3.123a2.665,2.665,0,0,0-.312.545,1.231,1.231,0,0,0-.109.475,1.057,1.057,0,0,0,.164.553,2.649,2.649,0,0,0,.436.553l.592.615a.417.417,0,0,1,.125.312.707.707,0,0,1-.023.179c-.023.062-.047.109-.062.156a6.463,6.463,0,0,1-.724,1c-.35.405-.724.818-1.129,1.231-.421.413-.826.794-1.238,1.145a5.978,5.978,0,0,1-1,.717c-.039.016-.086.039-.14.062a.538.538,0,0,1-.195.031.429.429,0,0,1-.319-.132l-.592-.584A2.39,2.39,0,0,0,4.7,9.541a1.037,1.037,0,0,0-.553-.164,1.243,1.243,0,0,0-.475.1,3.012,3.012,0,0,0-.545.3L.553,11.613a1.181,1.181,0,0,0-.428.5A1.6,1.6,0,0,0,0,12.719Z" fill="none" stroke="#222f35" stroke-width="1.2"/>
      </g>
      <path id="Vector-2" data-name="Vector" d="M18.692,0H0V18.692H18.692Z" fill="none" opacity="0"/>
    </g>
  </g>
</svg>
