<svg id="tick-circle_bulk" data-name="tick-circle/bulk" xmlns="http://www.w3.org/2000/svg" width="90" height="90" viewBox="0 0 90 90">
  <g id="vuesax_bulk_tick-circle" data-name="vuesax/bulk/tick-circle">
    <g id="tick-circle">
      <path id="Vector" d="M75,37.5A37.5,37.5,0,1,1,37.5,0,37.5,37.5,0,0,1,75,37.5Z" transform="translate(7.5 7.5)" fill="#00b42a" opacity="0.4"/>
      <path id="Vector-2" data-name="Vector" d="M13.416,26.878a2.81,2.81,0,0,1-1.987-.825L.816,15.441a2.811,2.811,0,1,1,3.975-3.975l8.625,8.625L32.691.816a2.811,2.811,0,0,1,3.975,3.975L15.4,26.053A2.81,2.81,0,0,1,13.416,26.878Z" transform="translate(26.259 31.547)" fill="#00b42a"/>
      <path id="Vector-3" data-name="Vector" d="M0,0H90V90H0Z" fill="none" opacity="0"/>
    </g>
  </g>
</svg>
