<svg xmlns="http://www.w3.org/2000/svg" width="12.58" height="12.492" viewBox="0 0 12.58 12.492">
  <path id="Subtraction_1" data-name="Subtraction 1" d="M9.846,12.493a2.191,2.191,0,0,1-1.057-.353L6.91,11.023a1.349,1.349,0,0,0-1.241,0L3.782,12.13a2.191,2.191,0,0,1-1.057.354.763.763,0,0,1-.623-.276,1.67,1.67,0,0,1-.132-1.4l.445-1.938a1.38,1.38,0,0,0-.327-1.141L.536,6.175a1.327,1.327,0,0,1-.5-1.3A1.325,1.325,0,0,1,1.2,4.111L3.2,3.776a1.381,1.381,0,0,0,.889-.654L5.2.907C5.488.322,5.876,0,6.292,0s.8.319,1.088.9L8.487,3.113a1.366,1.366,0,0,0,.889.654l2.005.336a1.334,1.334,0,0,1,1.16.77,1.328,1.328,0,0,1-.5,1.294l-1.56,1.568a1.368,1.368,0,0,0-.328,1.141l.445,1.938a1.67,1.67,0,0,1-.131,1.4A.764.764,0,0,1,9.846,12.493ZM6.29,9.9a.984.984,0,0,1,.49.119l1.484.881a1.726,1.726,0,0,0,.835.279.6.6,0,0,0,.493-.218,1.318,1.318,0,0,0,.1-1.108L9.344,8.323a1.08,1.08,0,0,1,.259-.9l1.232-1.239a1.047,1.047,0,0,0,.393-1.02,1.055,1.055,0,0,0-.917-.609L8.728,4.289a1.08,1.08,0,0,1-.7-.517l-.874-1.75c-.227-.458-.533-.71-.86-.71s-.635.254-.863.716l-.874,1.75a1.091,1.091,0,0,1-.7.517L2.268,4.56a1.047,1.047,0,0,0-.916.6A1.049,1.049,0,0,0,1.744,6.19L2.97,7.416a1.091,1.091,0,0,1,.258.9L2.877,9.848a1.318,1.318,0,0,0,.1,1.108.6.6,0,0,0,.493.218,1.73,1.73,0,0,0,.834-.279L5.8,10.02A.984.984,0,0,1,6.29,9.9Z" transform="translate(0.001 0)" fill="#fff"/>
</svg>
