<svg xmlns="http://www.w3.org/2000/svg" width="12.579" height="12.493" viewBox="0 0 12.579 12.493">
  <path id="Vector" d="M7.38.9,8.487,3.113a1.36,1.36,0,0,0,.889.654l2,.336c1.283.218,1.585,1.141.663,2.064l-1.56,1.569a1.369,1.369,0,0,0-.327,1.141l.445,1.938c.352,1.527-.461,2.122-1.812,1.325L6.91,11.023a1.351,1.351,0,0,0-1.241,0L3.782,12.13c-1.351.8-2.164.2-1.812-1.325l.445-1.938a1.385,1.385,0,0,0-.327-1.141L.535,6.175c-.923-.923-.621-1.854.663-2.064l2-.336a1.388,1.388,0,0,0,.889-.654L5.2.907C5.795-.3,6.785-.3,7.38.9Z" fill="#fff"/>
</svg>
