<svg xmlns="http://www.w3.org/2000/svg" width="139" height="156.662" viewBox="0 0 139 156.662">
  <g id="Group_174492" data-name="Group 174492" transform="translate(-616 -382)">
    <g id="Group_174491" data-name="Group 174491">
      <ellipse id="Ellipse_1151" data-name="Ellipse 1151" cx="69.5" cy="3" rx="69.5" ry="3" transform="translate(616 532.662)" fill="#efefef" opacity="0.3"/>
      <path id="Subtraction_10" data-name="Subtraction 10" d="M106.257,135.662c-3.229,0-7.173-1.327-11.4-3.838L74.574,119.705a14.475,14.475,0,0,0-13.393,0L40.816,131.727c-4.233,2.515-8.179,3.844-11.41,3.844a8.216,8.216,0,0,1-6.728-3c-2.491-3.15-2.983-8.418-1.422-15.234l4.8-21.043A15.057,15.057,0,0,0,22.528,83.9L5.785,67.055C.969,62.213-.933,57.2.429,52.948s5.8-7.2,12.5-8.3L34.571,41a14.911,14.911,0,0,0,9.6-7.105L56.112,9.85C59.225,3.5,63.412,0,67.9,0c4.466,0,8.636,3.463,11.742,9.752L91.589,33.8a14.749,14.749,0,0,0,9.6,7.105l21.638,3.646c6.725,1.149,11.169,4.119,12.514,8.364,1.339,4.228-.566,9.217-5.366,14.047L113.14,83.992A14.925,14.925,0,0,0,109.6,96.385l4.8,21.043c1.565,6.815,1.076,12.083-1.415,15.234A8.218,8.218,0,0,1,106.257,135.662ZM67.878,107.51a10.566,10.566,0,0,1,5.288,1.3l16.015,9.568c3.332,1.982,6.449,3.03,9.013,3.03a6.494,6.494,0,0,0,5.317-2.369c1.967-2.489,2.355-6.648,1.121-12.027l-3.8-16.625a11.775,11.775,0,0,1,2.8-9.783l13.3-13.458c3.788-3.807,5.293-7.743,4.238-11.082-1.061-3.356-4.573-5.707-9.89-6.618L94.192,46.569a11.657,11.657,0,0,1-7.585-5.61l-9.43-19c-2.454-4.972-5.75-7.71-9.282-7.71-3.548,0-6.857,2.762-9.316,7.779l-9.43,19a11.779,11.779,0,0,1-7.585,5.61L24.48,49.521c-5.3.87-8.805,3.2-9.881,6.556s.426,7.318,4.228,11.144L32.055,80.532a11.9,11.9,0,0,1,2.787,9.783l-3.788,16.625c-1.234,5.38-.846,9.54,1.122,12.029a6.492,6.492,0,0,0,5.316,2.369c2.55,0,5.664-1.048,9-3.031l16.093-9.5A10.566,10.566,0,0,1,67.878,107.51Z" transform="translate(617.623 382)" fill="#656e72"/>
    </g>
  </g>
</svg>
