<svg xmlns="http://www.w3.org/2000/svg" xmlns:xlink="http://www.w3.org/1999/xlink" width="22.093" height="21.896" viewBox="0 0 22.093 21.896">
  <defs>
    <clipPath id="clip-path">
      <rect width="22.093" height="21.896" fill="none"/>
    </clipPath>
  </defs>
  <g id="Repeat_Grid_4" data-name="Repeat Grid 4" clip-path="url(#clip-path)">
    <g transform="translate(-860.777 -345.972)">
      <path id="Subtraction_4" data-name="Subtraction 4" d="M17.292,21.9a3.853,3.853,0,0,1-1.856-.619l-3.3-1.956a2.373,2.373,0,0,0-2.179,0l-3.314,1.94a3.853,3.853,0,0,1-1.857.62A1.342,1.342,0,0,1,3.69,21.4a2.922,2.922,0,0,1-.231-2.459l.781-3.4a2.416,2.416,0,0,0-.574-2L.941,10.823A2.324,2.324,0,0,1,.069,8.546,2.326,2.326,0,0,1,2.1,7.206l3.521-.588A2.425,2.425,0,0,0,7.187,5.47L9.131,1.59C9.638.565,10.319,0,11.05,0s1.405.559,1.911,1.574L14.9,5.456A2.4,2.4,0,0,0,16.466,6.6l3.521.588a2.342,2.342,0,0,1,2.037,1.35,2.325,2.325,0,0,1-.873,2.267l-2.739,2.748a2.4,2.4,0,0,0-.575,2l.781,3.4a2.921,2.921,0,0,1-.23,2.459A1.342,1.342,0,0,1,17.292,21.9Zm-6.246-4.544a1.731,1.731,0,0,1,.861.209l2.606,1.544a3.035,3.035,0,0,0,1.467.489,1.06,1.06,0,0,0,.865-.382,2.307,2.307,0,0,0,.182-1.941l-.618-2.683a1.89,1.89,0,0,1,.455-1.579l2.164-2.172a1.834,1.834,0,0,0,.69-1.789A1.852,1.852,0,0,0,18.108,7.98l-2.78-.464a1.9,1.9,0,0,1-1.234-.905L12.559,3.544c-.4-.8-.936-1.244-1.511-1.244s-1.116.446-1.516,1.255L8,6.622a1.916,1.916,0,0,1-1.234.905l-2.78.465A1.838,1.838,0,0,0,2.375,9.051a1.836,1.836,0,0,0,.688,1.8L5.216,13a1.909,1.909,0,0,1,.454,1.579L5.053,17.26A2.307,2.307,0,0,0,5.236,19.2a1.06,1.06,0,0,0,.865.382A3.041,3.041,0,0,0,7.566,19.1l2.619-1.533A1.731,1.731,0,0,1,11.046,17.352Z" transform="translate(860.777 345.972)" fill="#e8c100"/>
    </g>
  </g>
</svg>
