<svg xmlns="http://www.w3.org/2000/svg" xmlns:xlink="http://www.w3.org/1999/xlink" width="34.225" height="34.225" viewBox="0 0 34.225 34.225">
  <defs>
    <clipPath id="clip-path">
      <rect width="34.225" height="34.225" fill="none"/>
    </clipPath>
  </defs>
  <g id="gallery-add_linear" data-name="gallery-add/linear" clip-path="url(#clip-path)">
    <g id="gallery-add_linear-2" data-name="gallery-add/linear">
      <g id="vuesax_linear_gallery-add" data-name="vuesax/linear/gallery-add">
        <g id="gallery-add">
          <path id="Vector" d="M5.7,2.852A2.852,2.852,0,1,1,2.852,0,2.852,2.852,0,0,1,5.7,2.852Z" transform="translate(9.982 8.556)" fill="none" stroke="#fff" stroke-linecap="round" stroke-linejoin="round" stroke-width="1.5"/>
          <path id="Vector-2" data-name="Vector" d="M15.686,0h-5.7C2.852,0,0,2.852,0,9.982v8.556c0,7.13,2.852,9.982,9.982,9.982h8.556c7.13,0,9.982-2.852,9.982-9.982v-7.13" transform="translate(2.852 2.852)" fill="none" stroke="#fff" stroke-linecap="round" stroke-linejoin="round" stroke-width="1.5"/>
          <path id="Vector-3" data-name="Vector" d="M0,0H7.843" transform="translate(22.46 7.13)" fill="none" stroke="#fff" stroke-linecap="round" stroke-width="1.5"/>
          <path id="Vector-4" data-name="Vector" d="M0,7.843V0" transform="translate(26.381 3.209)" fill="none" stroke="#fff" stroke-linecap="round" stroke-width="1.5"/>
          <path id="Vector-5" data-name="Vector" d="M0,9.914l7.03-4.72a3.213,3.213,0,0,1,3.765.2l.471.414a3.179,3.179,0,0,0,4.021,0L21.219.717a3.179,3.179,0,0,1,4.021,0l2.324,2" transform="translate(3.807 17.109)" fill="none" stroke="#fff" stroke-linecap="round" stroke-linejoin="round" stroke-width="1.5"/>
          <path id="Vector-6" data-name="Vector" d="M0,0H34.225V34.225H0Z" fill="none" opacity="0"/>
        </g>
      </g>
    </g>
  </g>
</svg>
