<svg id="call" xmlns="http://www.w3.org/2000/svg" xmlns:xlink="http://www.w3.org/1999/xlink" width="24" height="24" viewBox="0 0 24 24">
  <defs>
    <clipPath id="clip-path">
      <rect width="21.47" height="21.5" fill="none"/>
    </clipPath>
  </defs>
  <g id="Repeat_Grid_1" data-name="Repeat Grid 1" transform="translate(1.28 1.25)" clip-path="url(#clip-path)">
    <g transform="translate(-1.28 -1.25)">
      <path id="Vector" d="M12.58,4.01a3.422,3.422,0,0,0-.4.7,1.581,1.581,0,0,0-.14.61,1.357,1.357,0,0,0,.21.71,3.4,3.4,0,0,0,.56.71l.76.79a.535.535,0,0,1,.16.4.908.908,0,0,1-.03.23c-.03.08-.06.14-.08.2a8.3,8.3,0,0,1-.93,1.28c-.45.52-.93,1.05-1.45,1.58-.54.53-1.06,1.02-1.59,1.47a7.675,7.675,0,0,1-1.29.92c-.05.02-.11.05-.18.08a.69.69,0,0,1-.25.04.55.55,0,0,1-.41-.17l-.76-.75a3.068,3.068,0,0,0-.72-.56,1.332,1.332,0,0,0-.71-.21,1.6,1.6,0,0,0-.61.13,3.868,3.868,0,0,0-.7.39L.71,14.91a1.517,1.517,0,0,0-.55.64,2.052,2.052,0,0,0-.16.78,2.545,2.545,0,0,0,.25,1.09,4.126,4.126,0,0,0,.68,1.02,4.508,4.508,0,0,0,1.64,1.18A5.022,5.022,0,0,0,4.52,20a8.334,8.334,0,0,0,3.26-.73,17.564,17.564,0,0,0,3.44-1.98,28.75,28.75,0,0,0,3.28-2.8,28.414,28.414,0,0,0,2.79-3.27,17.828,17.828,0,0,0,1.96-3.41,8.423,8.423,0,0,0,.72-3.27,5.173,5.173,0,0,0-.36-1.93A4.6,4.6,0,0,0,18.46.94,2.93,2.93,0,0,0,16.38,0a1.879,1.879,0,0,0-.81.18,1.63,1.63,0,0,0-.67.56" transform="translate(2.03 2)" fill="none" stroke="#efc47f" stroke-linecap="round" stroke-linejoin="round" stroke-width="1.5"/>
    </g>
  </g>
  <path id="Vector-2" data-name="Vector" d="M24,0H0V24H24Z" fill="none" opacity="0"/>
</svg>
