<svg xmlns="http://www.w3.org/2000/svg" width="179.016" height="122.723" viewBox="0 0 179.016 122.723">
  <g id="Group_174370" data-name="Group 174370" transform="translate(20077.213 2870.698)">
    <path id="Path_55268" data-name="Path 55268" d="M452.024,460.864v5.106a5.228,5.228,0,0,0,.632,2.6,4.521,4.521,0,0,0,1.767,1.767,5.224,5.224,0,0,0,2.6.636h.1a5.3,5.3,0,0,0,2.612-.636,4.588,4.588,0,0,0,1.791-1.767,5.149,5.149,0,0,0,.648-2.6V454.187h1.94V465.97a7.007,7.007,0,0,1-.907,3.535,6.587,6.587,0,0,1-2.5,2.5,7.1,7.1,0,0,1-3.582.907h-.1a6.983,6.983,0,0,1-3.535-.907,6.634,6.634,0,0,1-2.486-2.486,6.983,6.983,0,0,1-.907-3.535v-5.106Zm4.454-6.284a1.221,1.221,0,0,1-.9-.393,1.2,1.2,0,0,1,0-1.74,1.221,1.221,0,0,1,.9-.393,1.155,1.155,0,0,1,.86.393,1.229,1.229,0,0,1,0,1.74,1.155,1.155,0,0,1-.876.408Zm13.048-5.872v14.14a1.151,1.151,0,0,0,1.194,1.218h1.591v1.94h-2.18a2.573,2.573,0,0,1-1.308-.338,2.451,2.451,0,0,1-.919-.919,2.525,2.525,0,0,1-.338-1.28V448.727Zm19.9,15.373v1.94H471.949l-.844-.322v-1.292l.844-.322h12.635v-2.635a3.42,3.42,0,0,0-.424-1.716,3.047,3.047,0,0,0-1.178-1.178,3.421,3.421,0,0,0-1.716-.424h-7.6l-.2-.35,4.65-9.081h1.94l-3.806,7.486h5.023a5.306,5.306,0,0,1,2.687.683,4.984,4.984,0,0,1,1.877,1.877,5.306,5.306,0,0,1,.683,2.687v2.635Zm-1.178,1.618v-1.292l.844-.322v1.94Zm19.128-12.066v8.3a4.069,4.069,0,0,1-.546,2.054,3.976,3.976,0,0,1-1.5,1.5,4.069,4.069,0,0,1-2.05.546,5.374,5.374,0,0,1-2.066-.361,3.142,3.142,0,0,1-1.367-1.033,3.311,3.311,0,0,1-1.473,1.06,5.263,5.263,0,0,1-1.9.35,4.572,4.572,0,0,1-1.826-.35,3.512,3.512,0,0,1-1.355-1.021,3.4,3.4,0,0,1-1.257,1.009,3.747,3.747,0,0,1-1.63.361h-1.32v-1.94H490.5a1.787,1.787,0,0,0,1.32-.522,1.756,1.756,0,0,0,.522-1.292v-6.214h1.917v6.194a1.7,1.7,0,0,0,.558,1.343,2.506,2.506,0,0,0,1.654.522,2.691,2.691,0,0,0,1.74-.522,1.65,1.65,0,0,0,.648-1.343v-6.194h1.94v6.194a1.571,1.571,0,0,0,.648,1.331,2.973,2.973,0,0,0,1.815.483,2.125,2.125,0,0,0,1.544-.632,2.066,2.066,0,0,0,.648-1.532v-8.28ZM514.6,471.6v1.143h-4.713V471.6Zm-2.561.648a2.718,2.718,0,0,1-1.331-.786,2.149,2.149,0,0,1-.511-1.5,2.172,2.172,0,0,1,.546-1.571,2,2,0,0,1,1.516-.573,2.121,2.121,0,0,1,1.532.558,2.651,2.651,0,0,1,.707,1.677h-1.041a1.6,1.6,0,0,0-.393-.821,1.052,1.052,0,0,0-.758-.275.978.978,0,0,0-.758.263,1.265,1.265,0,0,0-.236.856,1.775,1.775,0,0,0,.3.982,1.646,1.646,0,0,0,.919.66Zm-.786-6.194V448.727h1.94v17.313Z" transform="translate(-20496.119 -3243.854)" fill="#efc47f"/>
    <path id="Path_55269" data-name="Path 55269" d="M371.76,536.828v2.357a1.665,1.665,0,0,0,.491,1.241,1.7,1.7,0,0,0,1.249.483h5.283a1.076,1.076,0,0,0,.848-.322,1.237,1.237,0,0,0,.287-.856v-4.8h1.1v5.216a1.826,1.826,0,0,1-1.85,1.85H373.5a2.879,2.879,0,0,1-1.445-.365,2.615,2.615,0,0,1-1.009-1.009,2.879,2.879,0,0,1-.365-1.445v-2.357Zm2.816-1.866a.672.672,0,0,1-.491-.212.687.687,0,0,1-.212-.5.719.719,0,0,1,.7-.7.664.664,0,0,1,.5.212.683.683,0,0,1,.2.491.7.7,0,0,1-.2.5.664.664,0,0,1-.491.208Zm2.27,0a.672.672,0,0,1-.491-.212.687.687,0,0,1-.212-.5.719.719,0,0,1,.7-.7.664.664,0,0,1,.5.212.683.683,0,0,1,.2.491.7.7,0,0,1-.2.5.664.664,0,0,1-.491.208ZM382.91,542v-9.756H384V542Zm1.885,2.046h.715a1.835,1.835,0,0,0,.892-.216,1.507,1.507,0,0,0,.617-.617,1.862,1.862,0,0,0,.216-.9v-7.023h1.092v7.007a2.84,2.84,0,0,1-.373,1.445,2.686,2.686,0,0,1-1.009,1.009,2.843,2.843,0,0,1-1.438.365h-.715Zm6.622-11.8v7.977a.652.652,0,0,0,.2.5.676.676,0,0,0,.475.181h.9V542h-1.218a1.449,1.449,0,0,1-.734-.189,1.382,1.382,0,0,1-.518-.518,1.421,1.421,0,0,1-.189-.723V532.24Zm.982,9.576v-.731l.475-.181V542Zm.463-.911h1.991a2.164,2.164,0,0,1-.617-.786,2.25,2.25,0,0,1-.224-.994v-1.347a3,3,0,0,1,.35-1.457,2.533,2.533,0,0,1,1.017-1.017,3.141,3.141,0,0,1,1.571-.373,3.236,3.236,0,0,1,1.571.365,2.49,2.49,0,0,1,1.017,1.009,3.036,3.036,0,0,1,.35,1.473v1.347a2.2,2.2,0,0,1-.232.994,2.314,2.314,0,0,1-.609.786h1.893V542h-8.079Zm2.816-7.219a.683.683,0,0,1-.491-.2.664.664,0,0,1-.212-.5.719.719,0,0,1,.7-.7.664.664,0,0,1,.5.212.684.684,0,0,1,.2.491.7.7,0,0,1-.7.7Zm1.218,7.219a1.885,1.885,0,0,0,1.4-.514,1.72,1.72,0,0,0,.5-1.269v-1.347a1.728,1.728,0,0,0-.475-1.269,1.787,1.787,0,0,0-1.331-.483,1.964,1.964,0,0,0-1.41.464,1.7,1.7,0,0,0-.483,1.288v1.347a1.665,1.665,0,0,0,.243.892,1.834,1.834,0,0,0,.66.636,1.776,1.776,0,0,0,.9.251Zm1.053-7.219a.683.683,0,0,1-.491-.2.664.664,0,0,1-.212-.5.719.719,0,0,1,.7-.7.664.664,0,0,1,.5.212.684.684,0,0,1,.2.491.7.7,0,0,1-.7.7Zm2.431,8.13v-.731l.475-.181V542Zm8.959-.911V542h-2.565a2.313,2.313,0,0,1-.966-.2,2.058,2.058,0,0,1-.786-.609,2.777,2.777,0,0,1-1.877.813H400.82v-1.1h2.09a3.072,3.072,0,0,0,.786-.118,2.584,2.584,0,0,0,.786-.357l-2.608-3.814v-.856a10.612,10.612,0,0,1,1.654-.573,6.568,6.568,0,0,1,1.6-.2,4.644,4.644,0,0,1,1.571.24,2.282,2.282,0,0,1,1.029.687,1.638,1.638,0,0,1,.365,1.064,2.6,2.6,0,0,1-.153.841,4.54,4.54,0,0,1-.581,1.2,8.116,8.116,0,0,1-.919,1.072l-.393.365a1.815,1.815,0,0,0,.6.338,2.286,2.286,0,0,0,.731.114Zm-4.163-.994.279-.279a8.088,8.088,0,0,0,.766-.931,4.106,4.106,0,0,0,.511-1.045v-.055q.043-.141.071-.275a1.26,1.26,0,0,0,.027-.259.868.868,0,0,0-.448-.786,2.482,2.482,0,0,0-1.3-.279,5.263,5.263,0,0,0-1.115.126,5.34,5.34,0,0,0-1.1.365v.071Zm3.594,1.9v-.731l.475-.181V542Zm.463-.911h.911a.648.648,0,0,0,.66-.687v-7.977H411.9v8.327a1.422,1.422,0,0,1-.188.723,1.383,1.383,0,0,1-.518.518,1.45,1.45,0,0,1-.734.189h-1.218ZM413.9,542v-9.756h1.092V542Zm5.711,0a2.647,2.647,0,0,1-1.386-.393,2.772,2.772,0,0,1-1-1.037,2.862,2.862,0,0,1-.373-1.43v-1.347a2.95,2.95,0,0,1,.365-1.465,2.639,2.639,0,0,1,1.017-1.025,2.907,2.907,0,0,1,1.465-.373h.141a2.907,2.907,0,0,1,1.465.373,2.643,2.643,0,0,1,1.017,1.025,2.95,2.95,0,0,1,.365,1.465v2.129l-1.092.365v-2.494a1.728,1.728,0,0,0-.491-1.276,1.709,1.709,0,0,0-1.261-.491H419.7a1.846,1.846,0,0,0-.919.224,1.572,1.572,0,0,0-.617.625,1.889,1.889,0,0,0-.216.919v1.347a1.76,1.76,0,0,0,.224.876,1.732,1.732,0,0,0,.609.636,1.571,1.571,0,0,0,.833.24Zm-1.654,1.964a9.21,9.21,0,0,0,2.145.047,1.81,1.81,0,0,0,1.135-.491,1.571,1.571,0,0,0,.35-1.088v-2.27l1.092-.393v2.9a2.333,2.333,0,0,1-.534,1.591,2.632,2.632,0,0,1-1.571.786,7.989,7.989,0,0,1-2.62-.063Zm4.136-3.04v1.092h-2.506v-1.092Zm3.869,3.142h.7a1.822,1.822,0,0,0,.9-.216,1.571,1.571,0,0,0,.617-.617,1.815,1.815,0,0,0,.224-.9v-7.042h1.08v7.007a2.883,2.883,0,0,1-.365,1.445,2.624,2.624,0,0,1-1.009,1.009,2.882,2.882,0,0,1-1.445.365h-.7Zm4.933-3.142v1.092h-1.528V540.9Zm-.169,0v1.092l-.475-.181V541.1Zm1.135,0a1.049,1.049,0,0,0,.848-.322,1.276,1.276,0,0,0,.275-.856v-4.36h1.092v3.994a3.3,3.3,0,0,1-.518,1.838,1.869,1.869,0,0,1-1.7.786h-1.135v-1.1Zm.365,3.786a.684.684,0,0,1-.491-.2.7.7,0,1,1,.491.188Zm2.832-2.69a1.81,1.81,0,0,1-1.037-.322,2.3,2.3,0,0,1-.75-.833A2.192,2.192,0,0,1,433,539.82v-4.43h1.092v4.36a1.237,1.237,0,0,0,.287.856,1.076,1.076,0,0,0,.848.322h.966v1.092Zm-.562,2.69a.7.7,0,0,1-.5-.2.707.707,0,0,1,.5-1.2.664.664,0,0,1,.5.212.7.7,0,0,1-.5,1.178Zm10.774-3.786v1.092h-.463a2.089,2.089,0,0,1-1.143-.314,1.9,1.9,0,0,1-.734-.848,2.611,2.611,0,0,1-.9.805,2.428,2.428,0,0,1-1.178.3,3.536,3.536,0,0,1-1.332-.251,3.118,3.118,0,0,1-1.092-.731,1.9,1.9,0,0,1-.75.766,2.168,2.168,0,0,1-1.088.275h-.562l-.475-.181v-.731l.475-.181h.562a1.156,1.156,0,0,0,1.194-1.206V537.8a2.879,2.879,0,0,1,.373-1.449,2.706,2.706,0,0,1,.986-1.064,2.866,2.866,0,0,1,1.457-.373h.141a2.906,2.906,0,0,1,1.465.373,2.644,2.644,0,0,1,1.017,1.025,2.923,2.923,0,0,1,.365,1.449v1.921a1.155,1.155,0,0,0,1.206,1.206Zm-4.43-.043a1.571,1.571,0,0,0,.833-.24,1.776,1.776,0,0,0,.617-.644,1.755,1.755,0,0,0,.232-.884V537.8a1.7,1.7,0,0,0-.5-1.261,1.732,1.732,0,0,0-1.269-.491h-.141a1.845,1.845,0,0,0-.919.224,1.571,1.571,0,0,0-.617.625,1.857,1.857,0,0,0-.216.9v2.117a2.247,2.247,0,0,0,.848.707,2.514,2.514,0,0,0,1.139.243Zm3.822.954V541.1l.475-.181v1.092Zm8.959-.911v1.092h-2.565a2.313,2.313,0,0,1-.966-.2,2.058,2.058,0,0,1-.786-.609,2.776,2.776,0,0,1-1.877.813h-2.309V540.9h2.09a3.072,3.072,0,0,0,.786-.118,2.584,2.584,0,0,0,.786-.357l-2.608-3.814v-.856a10.611,10.611,0,0,1,1.654-.573,6.568,6.568,0,0,1,1.6-.2,4.644,4.644,0,0,1,1.571.24,2.282,2.282,0,0,1,1.029.687,1.638,1.638,0,0,1,.365,1.064,2.6,2.6,0,0,1-.153.841,4.541,4.541,0,0,1-.581,1.2,8.113,8.113,0,0,1-.919,1.072l-.393.365a1.815,1.815,0,0,0,.589.33,2.284,2.284,0,0,0,.731.114Zm-4.163-.994.279-.279a8.082,8.082,0,0,0,.766-.931,4.1,4.1,0,0,0,.511-1.045v-.055q.043-.141.071-.275a1.258,1.258,0,0,0,.028-.259.868.868,0,0,0-.448-.786,2.482,2.482,0,0,0-1.3-.279,5.256,5.256,0,0,0-1.116.126,5.337,5.337,0,0,0-1.1.365v.071Zm4.046.994v1.092l-.475-.181V541.1Zm1.108,0a1.056,1.056,0,0,0,.841-.322,1.257,1.257,0,0,0,.279-.856v-4.36h1.092v3.994a3.3,3.3,0,0,1-.518,1.838,1.885,1.885,0,0,1-1.709.786H453.5v-1.1Zm.546-6.744a.684.684,0,0,1-.491-.2.664.664,0,0,1-.212-.5.719.719,0,0,1,.7-.7.664.664,0,0,1,.5.212.684.684,0,0,1,.2.491.7.7,0,0,1-.7.7Zm2.651,7.855a1.8,1.8,0,0,1-1.045-.322,2.416,2.416,0,0,1-1.029-1.877v-4.43h1.088v4.36a1.237,1.237,0,0,0,.287.856,1.076,1.076,0,0,0,.848.322h1.222v1.092Zm-.365-7.855a.7.7,0,0,1-.5-.2.664.664,0,0,1-.212-.5.672.672,0,0,1,.212-.491.688.688,0,0,1,.5-.212.719.719,0,0,1,.7.7.664.664,0,0,1-.212.5.683.683,0,0,1-.487.192Zm1.178,7.655V541.1l.475-.181v1.092Zm1.009-.911a1.056,1.056,0,0,0,.841-.322,1.257,1.257,0,0,0,.279-.856v-7.5h1.092v7.121a3.264,3.264,0,0,1-.526,1.838,1.889,1.889,0,0,1-1.7.786h-.546V540.9Zm3.181,1.092a1.811,1.811,0,0,1-1.037-.322,2.3,2.3,0,0,1-.75-.833,2.192,2.192,0,0,1-.275-1.045V532.26h1.092v7.467a1.237,1.237,0,0,0,.287.856,1.076,1.076,0,0,0,.848.322h.491V542Zm.079-.181V541.1l.475-.181v1.092Zm.464-.911h.931a.648.648,0,0,0,.66-.687v-7.993h1.092v8.327a1.422,1.422,0,0,1-.189.723,1.382,1.382,0,0,1-.518.518,1.449,1.449,0,0,1-.734.189h-1.218Z" transform="translate(-20447.893 -3294.582)" fill="#efc47f"/>
    <path id="Path_55270" data-name="Path 55270" d="M813.56,343.46l5.067,6.331v80.557H813.56Z" transform="translate(-20716.824 -3179.948)" fill="#efc47f"/>
    <path id="Path_55271" data-name="Path 55271" d="M795.107,509.29l-5.067,1.587v20.169h5.067Z" transform="translate(-20702.543 -3280.646)" fill="#efc47f"/>
    <path id="Path_55272" data-name="Path 55272" d="M770.687,509.29l-5.067,1.587v20.169h5.067Z" transform="translate(-20687.713 -3280.646)" fill="#efc47f"/>
    <path id="Path_55273" data-name="Path 55273" d="M746.267,509.29l-5.067,1.587v20.169h5.067Z" transform="translate(-20672.885 -3280.646)" fill="#efc47f"/>
    <rect id="Rectangle_1952" data-name="Rectangle 1952" width="24.253" height="5.067" transform="translate(-19931.686 -2780.005)" fill="#efc47f"/>
    <path id="Path_55274" data-name="Path 55274" d="M765.449,402.74V409.9l-5.063-5.063L741.2,385.654V378.49Z" transform="translate(-20672.885 -3201.22)" fill="#efc47f"/>
    <path id="Path_55275" data-name="Path 55275" d="M790.05,463.92l5.067,5.067v9.171H790.05Z" transform="translate(-20702.549 -3253.096)" fill="#efc47f"/>
    <path id="Path_55276" data-name="Path 55276" d="M746.267,383.557v21.535l-5.067-5.067V378.49Z" transform="translate(-20672.885 -3201.22)" fill="#efc47f"/>
    <path id="Path_55277" data-name="Path 55277" d="M746.267,456.617v14.03H741.2v-19.1Z" transform="translate(-20672.885 -3245.584)" fill="#efc47f"/>
    <path id="Path_55278" data-name="Path 55278" d="M765.453,439.329v7.164h0l-3.056-3.06-2.007-2.007-14.12-14.116-5.067-5.067V415.08l5.067,5.067,14.12,14.116Z" transform="translate(-20672.885 -3223.438)" fill="#efc47f"/>
    <path id="Path_55279" data-name="Path 55279" d="M795.3,322.212l-5.031-5.1-.047,7.164-.181,27.132,5.035,5.1Z" transform="translate(-20702.543 -3163.948)" fill="#efc47f"/>
    <path id="Path_55280" data-name="Path 55280" d="M779.517,375.47l-15.129-15.33-.047,7.164,15.129,15.33Z" transform="translate(-20686.936 -3190.077)" fill="#efc47f"/>
    <path id="Path_55281" data-name="Path 55281" d="M769.6,296.162l-5.035-5.1v0l-.028,4.324-.02,2.836-.133,19.968-.047,7.164,5.035,5.1.047-7.168.134-19.964Z" transform="translate(-20686.936 -3148.13)" fill="#efc47f"/>
    <path id="Path_55282" data-name="Path 55282" d="M746.267,322.614l-5.067-5.247V292.61h5.067Z" transform="translate(-20672.885 -3149.071)" fill="#efc47f"/>
    <path id="Path_55283" data-name="Path 55283" d="M741.2,267.08l5.067,5.243V297.08H741.2Z" transform="translate(-20672.885 -3133.568)" fill="#efc47f"/>
    <rect id="Rectangle_1953" data-name="Rectangle 1953" width="4.218" height="4.218" transform="translate(-19915.482 -2851.487) rotate(-45)" fill="#efc47f"/>
    <path id="Path_55284" data-name="Path 55284" d="M676.038,383.523H642.26V302.785l33.778-36.645Zm-33.487-.271h33.2V266.871l-33.2,36.025Z" transform="translate(-20612.805 -3132.997)" fill="#efc47f" stroke="#efc47f" stroke-width="3"/>
  </g>
</svg>
