<svg id="element-3_linear" data-name="element-3/linear" xmlns="http://www.w3.org/2000/svg" width="22.465" height="22.465" viewBox="0 0 22.465 22.465">
  <g id="vuesax_linear_element-3" data-name="vuesax/linear/element-3">
    <g id="element-3">
      <path id="Vector" d="M7.956,6.1V1.853C7.956.534,7.357,0,5.869,0H2.087C.6,0,0,.534,0,1.853v4.24C0,7.423.6,7.947,2.087,7.947H5.869C7.357,7.956,7.956,7.423,7.956,6.1Z" transform="translate(12.637 1.872)" fill="none" stroke="#676767" stroke-linecap="round" stroke-linejoin="round" stroke-width="1.2"/>
      <path id="Vector-2" data-name="Vector" d="M7.956,5.869V2.087C7.956.6,7.357,0,5.869,0H2.087C.6,0,0,.6,0,2.087V5.869C0,7.357.6,7.956,2.087,7.956H5.869C7.357,7.956,7.956,7.357,7.956,5.869Z" transform="translate(12.637 12.637)" fill="none" stroke="#676767" stroke-linecap="round" stroke-linejoin="round" stroke-width="1.2"/>
      <path id="Vector-3" data-name="Vector" d="M7.956,6.1V1.853C7.956.534,7.357,0,5.869,0H2.087C.6,0,0,.534,0,1.853v4.24C0,7.423.6,7.947,2.087,7.947H5.869C7.357,7.956,7.956,7.423,7.956,6.1Z" transform="translate(1.872 1.872)" fill="none" stroke="#676767" stroke-linecap="round" stroke-linejoin="round" stroke-width="1.2"/>
      <path id="Vector-4" data-name="Vector" d="M7.956,5.869V2.087C7.956.6,7.357,0,5.869,0H2.087C.6,0,0,.6,0,2.087V5.869C0,7.357.6,7.956,2.087,7.956H5.869C7.357,7.956,7.956,7.357,7.956,5.869Z" transform="translate(1.872 12.637)" fill="none" stroke="#676767" stroke-linecap="round" stroke-linejoin="round" stroke-width="1.2"/>
      <path id="Vector-5" data-name="Vector" d="M0,0H22.465V22.465H0Z" fill="none" opacity="0"/>
    </g>
  </g>
</svg>
